<?xml version="1.0" encoding="UTF-8" standalone="no"?>
<svg
   xmlns:dc="http://purl.org/dc/elements/1.1/"
   xmlns:cc="http://creativecommons.org/ns#"
   xmlns:rdf="http://www.w3.org/1999/02/22-rdf-syntax-ns#"
   xmlns:svg="http://www.w3.org/2000/svg"
   xmlns="http://www.w3.org/2000/svg"
   xmlns:xlink="http://www.w3.org/1999/xlink"
   xmlns:sodipodi="http://sodipodi.sourceforge.net/DTD/sodipodi-0.dtd"
   xmlns:inkscape="http://www.inkscape.org/namespaces/inkscape"
   width="16"
   viewBox="0 0 16 16"
   height="16"
   id="svg2"
   version="1.1"
   inkscape:version="0.92.3 (2405546, 2018-03-11)"
   sodipodi:docname="checkbox-checked-unfocused.svg">
  <metadata
     id="metadata18">
    <rdf:RDF>
      <cc:Work
         rdf:about="">
        <dc:format>image/svg+xml</dc:format>
        <dc:type
           rdf:resource="http://purl.org/dc/dcmitype/StillImage" />
        <dc:title />
      </cc:Work>
    </rdf:RDF>
  </metadata>
  <sodipodi:namedview
     pagecolor="#ffffff"
     bordercolor="#666666"
     borderopacity="1"
     objecttolerance="10"
     gridtolerance="10"
     guidetolerance="10"
     inkscape:pageopacity="0"
     inkscape:pageshadow="2"
     inkscape:window-width="1842"
     inkscape:window-height="1015"
     id="namedview16"
     showgrid="false"
     inkscape:zoom="23.864854"
     inkscape:cx="-5.6382447"
     inkscape:cy="7.4725631"
     inkscape:window-x="78"
     inkscape:window-y="27"
     inkscape:window-maximized="1"
     inkscape:current-layer="svg2" />
  <defs
     id="defs4">
    <linearGradient
       inkscape:collect="always"
       id="grad1">
      <stop
         style="stop-color:#4c4e50;stop-opacity:1"
         offset="0"
         id="stop4557" />
      <stop
         style="stop-color:#3b3c3d;stop-opacity:1"
         offset="1"
         id="stop4559" />
    </linearGradient>
    <linearGradient
       id="linearGradient3809">
      <stop
         offset="0"
         style="stop-color:#e5e5e5"
         id="stop7" />
      <stop
         offset="1"
         style="stop-color:#f9f9f9"
         id="stop9" />
    </linearGradient>
    <linearGradient
       gradientTransform="translate(0 -16)"
       xlink:href="#linearGradient3809"
       id="linearGradient3815"
       x1="1"
       x2="15"
       gradientUnits="userSpaceOnUse" />
    <linearGradient
       id="linearGradient3044"
       inkscape:collect="always">
      <stop
         id="stop3046"
         offset="0"
         style="stop-color:#1f2a2c;stop-opacity:1" />
      <stop
         id="stop3048"
         offset="1"
         style="stop-color:#253235;stop-opacity:1" />
    </linearGradient>
    <linearGradient
       id="linearGradient3036"
       inkscape:collect="always">
      <stop
         id="stop3038"
         offset="0"
         style="stop-color:#293739;stop-opacity:1" />
      <stop
         id="stop3040"
         offset="1"
         style="stop-color:#314245;stop-opacity:1" />
    </linearGradient>
    <inkscape:path-effect
       effect="spiro"
       id="path-effect3026"
       is_visible="true" />
    <linearGradient
       inkscape:collect="always"
       id="linearGradient15404">
      <stop
         style="stop-color:#515151;stop-opacity:1"
         offset="0"
         id="stop15406" />
      <stop
         style="stop-color:#292929;stop-opacity:1"
         offset="1"
         id="stop15408" />
    </linearGradient>
    <inkscape:perspective
       id="perspective3207"
       inkscape:persp3d-origin="372.04724 : 350.78739 : 1"
       inkscape:vp_z="744.09448 : 526.18109 : 1"
       inkscape:vp_y="0 : 1000 : 0"
       inkscape:vp_x="0 : 526.18109 : 1"
       sodipodi:type="inkscape:persp3d" />
    <inkscape:perspective
       sodipodi:type="inkscape:persp3d"
       inkscape:vp_x="0 : 0.5 : 1"
       inkscape:vp_y="0 : 1000 : 0"
       inkscape:vp_z="1 : 0.5 : 1"
       inkscape:persp3d-origin="0.5 : 0.33333333 : 1"
       id="perspective3187" />
    <linearGradient
       y2="231.24142"
       x2="206.74803"
       y1="246.7094"
       x1="205.84143"
       gradientUnits="userSpaceOnUse"
       id="linearGradient5891-0-4"
       xlink:href="#linearGradient5872-5-1"
       inkscape:collect="always" />
    <linearGradient
       id="linearGradient5872-5-1">
      <stop
         id="stop5874-4-4"
         offset="0"
         style="stop-color:#17520b;stop-opacity:1;" />
      <stop
         id="stop5876-0-5"
         offset="1"
         style="stop-color:#31af18;stop-opacity:1;" />
    </linearGradient>
    <inkscape:path-effect
       is_visible="true"
       id="path-effect5837-4-6"
       effect="spiro" />
    <inkscape:path-effect
       is_visible="true"
       id="path-effect14768"
       effect="spiro" />
    <inkscape:path-effect
       is_visible="true"
       id="path-effect5884-4-7"
       effect="spiro" />
    <linearGradient
       inkscape:collect="always"
       xlink:href="#linearGradient15404"
       id="linearGradient14219"
       gradientUnits="userSpaceOnUse"
       gradientTransform="matrix(1.5918367,0,0,0.85714285,-256.56122,59.685418)"
       x1="-93.031357"
       y1="-396.34738"
       x2="-93.031357"
       y2="-388.72955" />
    <linearGradient
       id="linearGradient10013-4-63-6"
       inkscape:collect="always">
      <stop
         id="stop10015-2-76-1"
         offset="0"
         style="stop-color:#333333;stop-opacity:1;" />
      <stop
         id="stop10017-46-15-8"
         offset="1"
         style="stop-color:#292929;stop-opacity:1" />
    </linearGradient>
    <linearGradient
       id="linearGradient10597-5"
       inkscape:collect="always">
      <stop
         id="stop10599-2"
         offset="0"
         style="stop-color:#16191a;stop-opacity:1;" />
      <stop
         id="stop10601-5"
         offset="1"
         style="stop-color:#2b3133;stop-opacity:1" />
    </linearGradient>
    <linearGradient
       inkscape:collect="always"
       xlink:href="#linearGradient10013-4-63-6"
       id="linearGradient15374"
       gradientUnits="userSpaceOnUse"
       gradientTransform="matrix(1.5918367,0,0,0.85714285,-1456.5464,275.45191)"
       x1="921.32812"
       y1="-330.05121"
       x2="921.22498"
       y2="-322.16354" />
    <linearGradient
       inkscape:collect="always"
       xlink:href="#linearGradient10597-5"
       id="linearGradient15376"
       gradientUnits="userSpaceOnUse"
       x1="1203.9177"
       y1="-217.56708"
       x2="1203.9177"
       y2="-227.07961"
       gradientTransform="translate(-1199.9852,216.38048)" />
    <linearGradient
       gradientTransform="matrix(0.84337,0,0,0.84337,179.95295,329.68771)"
       y2="231.24142"
       x2="206.74803"
       y1="246.7094"
       x1="205.84143"
       gradientUnits="userSpaceOnUse"
       id="linearGradient3024"
       xlink:href="#linearGradient5872-5-1"
       inkscape:collect="always" />
    <linearGradient
       gradientTransform="translate(-49.497475,26.162951)"
       gradientUnits="userSpaceOnUse"
       y2="503.70303"
       x2="398.375"
       y1="514.23718"
       x1="404"
       id="linearGradient3042"
       xlink:href="#linearGradient3036"
       inkscape:collect="always" />
    <linearGradient
       gradientTransform="translate(-49.497475,26.162951)"
       gradientUnits="userSpaceOnUse"
       y2="502.85385"
       x2="396.61667"
       y1="507.86218"
       x1="402.25"
       id="linearGradient3050"
       xlink:href="#linearGradient3044"
       inkscape:collect="always" />
    <linearGradient
       y2="503.70303"
       x2="398.375"
       y1="513.91156"
       x1="398.375"
       gradientTransform="matrix(1.0666667,0,0,1.0666667,-418.66668,-532.65301)"
       gradientUnits="userSpaceOnUse"
       id="linearGradient3856"
       xlink:href="#grad1"
       inkscape:collect="always" />
    <linearGradient
       inkscape:collect="always"
       xlink:href="#grad1"
       id="linearGradient4563"
       x1="1.0666676"
       y1="8"
       x2="14.933334"
       y2="8"
       gradientUnits="userSpaceOnUse"
       gradientTransform="translate(-16.000001)" />
  </defs>
  <rect
     width="14"
     x="1"
     y="-15"
     rx="1"
     height="14"
     style="fill:#ffffff"
     transform="rotate(90)"
     id="rect12" />
  <rect
     style="fill:url(#linearGradient3856);fill-opacity:1;stroke:none"
     id="rect3024"
     width="16"
     height="16"
     x="-5.999039e-32"
     y="-9.7971748e-16"
     rx="3.2666667"
     ry="3.2666667" />
  <rect
     ry="2.8311112"
     rx="2.8311112"
     y="1.0666676"
     x="-14.933333"
     height="13.866667"
     width="13.866667"
     id="rect3026"
     style="fill:url(#linearGradient4563);fill-opacity:1;stroke:none"
     transform="rotate(-90)" />
  <path
     inkscape:connector-curvature="0"
     style="opacity:0.2;fill:#ffffff;fill-opacity:1;stroke:none;stroke-width:1.14995289"
     d="M 3.2729982,-7.397e-4 C 1.4645011,-7.397e-4 0.006,1.4499163 0.006,3.2486866 V 4.472 c 0,-1.7987702 1.4585011,-3.2494261 3.2669982,-3.2494261 h 9.4550728 c 1.808495,0 3.266998,1.4506559 3.266998,3.2494261 V 3.2486866 c 0,-1.7987703 -1.458503,-3.2494263 -3.266998,-3.2494263 z"
     id="rect3932-3-3" />
  <path
     style="opacity:0.1;fill:#000000;fill-opacity:1;stroke:none"
     d="m 11.594886,4.3377405 c -0.267296,0.050027 -0.533483,0.2235521 -0.7,0.4666667 L 6.594885,11.104407 4.961552,9.471074 c -0.416736,-0.416736 -1.083264,-0.416736 -1.5,0 -0.416736,0.4167365 -0.416736,1.083264 0,1.499999 l 2.366667,2.366667 0.166666,0.166667 c 0.04491,0.04437 0.07925,0.09632 0.133334,0.133333 0.04171,0.02859 0.08939,0.0448 0.133333,0.06667 0.05451,0.02688 0.109291,0.04971 0.166667,0.06667 0.03243,0.0096 0.0672,0.02667 0.09995,0.03328 0.02101,0.0043 0.04544,-0.0032 0.06667,0 0.09003,0.01152 0.176608,0.01152 0.266666,0 0.09003,-0.01163 0.181323,-0.03189 0.266667,-0.06667 0.133963,-0.05301 0.261259,-0.126603 0.366667,-0.233334 0.04437,-0.04491 0.09632,-0.07936 0.133333,-0.133333 l 5.033333,-7.3666691 c 0.333035,-0.4862293 0.219563,-1.1669547 -0.266667,-1.5 -0.243114,-0.1665174 -0.532704,-0.2166507 -0.8,-0.1666667 z"
     id="rect3067"
     inkscape:connector-curvature="0" />
  <path
     style="fill:#ffffff;fill-opacity:0.73725492;stroke:none"
     d="m 11.594886,3.2712552 c -0.267296,0.050027 -0.533483,0.223552 -0.7,0.4666667 L 6.594885,10.037922 4.961552,8.4045887 c -0.416736,-0.416736 -1.083264,-0.416736 -1.5,0 -0.416736,0.416736 -0.416736,1.083264 0,1.5000004 l 2.366667,2.3666659 0.166666,0.166666 c 0.04491,0.04437 0.07925,0.09632 0.133334,0.133334 0.04171,0.02859 0.08939,0.0448 0.133333,0.06667 0.05451,0.02688 0.109291,0.04971 0.166667,0.06667 0.03243,0.0096 0.0672,0.02667 0.09995,0.03328 0.02101,0.0043 0.04544,-0.0032 0.06667,0 0.09003,0.01163 0.176608,0.01163 0.266666,0 0.09003,-0.01163 0.181323,-0.03189 0.266667,-0.06667 0.133963,-0.05301 0.261259,-0.126613 0.366667,-0.233333 0.04437,-0.04491 0.09632,-0.07925 0.133333,-0.133333 l 5.033333,-7.3666704 c 0.333035,-0.4862294 0.219563,-1.1669547 -0.266667,-1.5000001 -0.243114,-0.1665173 -0.532704,-0.2166507 -0.8,-0.1666667 z"
     id="rect3828"
     inkscape:connector-curvature="0" />
</svg>
