<?xml version="1.0" encoding="UTF-8" standalone="no"?>
<svg
   xmlns:dc="http://purl.org/dc/elements/1.1/"
   xmlns:cc="http://creativecommons.org/ns#"
   xmlns:rdf="http://www.w3.org/1999/02/22-rdf-syntax-ns#"
   xmlns:svg="http://www.w3.org/2000/svg"
   xmlns="http://www.w3.org/2000/svg"
   xmlns:xlink="http://www.w3.org/1999/xlink"
   xmlns:sodipodi="http://sodipodi.sourceforge.net/DTD/sodipodi-0.dtd"
   xmlns:inkscape="http://www.inkscape.org/namespaces/inkscape"
   width="16"
   viewBox="0 0 16 16"
   height="16"
   id="svg2"
   version="1.1"
   inkscape:version="0.92.3 (2405546, 2018-03-11)"
   sodipodi:docname="checkbox-checked-insensitive.svg">
  <metadata
     id="metadata20">
    <rdf:RDF>
      <cc:Work
         rdf:about="">
        <dc:format>image/svg+xml</dc:format>
        <dc:type
           rdf:resource="http://purl.org/dc/dcmitype/StillImage" />
        <dc:title />
      </cc:Work>
    </rdf:RDF>
  </metadata>
  <sodipodi:namedview
     pagecolor="#ffffff"
     bordercolor="#666666"
     borderopacity="1"
     objecttolerance="10"
     gridtolerance="10"
     guidetolerance="10"
     inkscape:pageopacity="0"
     inkscape:pageshadow="2"
     inkscape:window-width="1842"
     inkscape:window-height="1015"
     id="namedview18"
     showgrid="false"
     inkscape:zoom="32"
     inkscape:cx="-4.0077041"
     inkscape:cy="7.6333302"
     inkscape:window-x="78"
     inkscape:window-y="27"
     inkscape:window-maximized="1"
     inkscape:current-layer="svg2" />
  <defs
     id="defs4">
    <linearGradient
       inkscape:collect="always"
       id="linearGradient905">
      <stop
         style="stop-color:#14367a;stop-opacity:1"
         offset="0"
         id="stop901" />
      <stop
         style="stop-color:#15367f;stop-opacity:1"
         offset="1"
         id="stop903" />
    </linearGradient>
    <linearGradient
       id="linearGradient3809">
      <stop
         offset="0"
         style="stop-color:#e5e5e5"
         id="stop7" />
      <stop
         offset="1"
         style="stop-color:#f9f9f9"
         id="stop9" />
    </linearGradient>
    <linearGradient
       gradientTransform="translate(0 -16)"
       id="linearGradient3832"
       xlink:href="#linearGradient3809"
       x1="1"
       x2="15"
       gradientUnits="userSpaceOnUse" />
    <linearGradient
       inkscape:collect="always"
       xlink:href="#linearGradient905"
       id="linearGradient3853"
       gradientUnits="userSpaceOnUse"
       gradientTransform="matrix(1.0666667,0,0,1.0666667,-418.66669,-532.65303)"
       x1="402.25"
       y1="507.86218"
       x2="396.61667"
       y2="502.85385" />
    <linearGradient
       inkscape:collect="always"
       xlink:href="#linearGradient905"
       id="linearGradient3856"
       gradientUnits="userSpaceOnUse"
       gradientTransform="matrix(1.0666667,0,0,1.0666667,-418.66669,-532.65303)"
       x1="404"
       y1="514.23718"
       x2="398.375"
       y2="503.70303" />
  </defs>
  <rect
     style="fill:url(#linearGradient3856);fill-opacity:1.0;stroke:none"
     id="rect3024"
     width="16"
     height="16"
     x="-7.2848013e-07"
     y="-2.4944501e-07"
     rx="3.2666667"
     ry="3.2666667" />
  <rect
     ry="2.8311112"
     rx="2.8311112"
     y="1.0666665"
     x="1.066666"
     height="13.866667"
     width="13.866667"
     id="rect3026"
     style="fill:url(#linearGradient3853);fill-opacity:1;stroke:none" />
  <path
     inkscape:connector-curvature="0"
     style="opacity:0.2;fill:#000000;fill-opacity:0.32335329;stroke:none;stroke-width:1.14995289"
     d="m 12.722072,16 c 1.808497,0 3.266998,-1.450656 3.266998,-3.249427 V 11.52726 c 0,1.79877 -1.458501,3.249426 -3.266998,3.249426 H 3.2669986 C 1.4585026,14.776686 -4e-7,13.32603 -4e-7,11.52726 v 1.223313 C -4e-7,14.549344 1.4585026,16 3.2669986,16 Z"
     id="rect3932-3" />
  <path
     inkscape:connector-curvature="0"
     style="opacity:0.2;fill:#ffffff;fill-opacity:1;stroke:none;stroke-width:1.14995289"
     d="m 3.2727687,-0.00107827 c -1.8084971,0 -3.2669982,1.45065597 -3.2669982,3.24942627 v 1.2233134 c 0,-1.7987702 1.4585011,-3.2494261 3.2669982,-3.2494261 h 9.4550723 c 1.808496,0 3.266999,1.4506559 3.266999,3.2494261 V 3.248348 c 0,-1.7987703 -1.458503,-3.24942627 -3.266999,-3.24942627 z"
     id="rect3932-3-3" />
  <path
     style="opacity:0.1;fill:#000000;fill-opacity:1;stroke:none"
     d="m 11.594886,4.3377396 c -0.267296,0.050027 -0.533483,0.2235521 -0.7,0.4666667 L 6.5948855,11.104406 4.9615521,9.4710731 c -0.416736,-0.416736 -1.083264,-0.416736 -1.5,0 -0.4167361,0.4167369 -0.4167361,1.0832639 0,1.4999989 l 2.3666667,2.366668 0.1666667,0.166667 c 0.044907,0.04437 0.079253,0.09632 0.1333333,0.133333 0.041707,0.02859 0.089387,0.0448 0.1333333,0.06667 0.054507,0.02688 0.1092907,0.04971 0.1666667,0.06667 0.032427,0.0096 0.0672,0.02667 0.099947,0.03328 0.021013,0.0043 0.04544,-0.0032 0.066667,0 0.090027,0.01152 0.176608,0.01152 0.2666666,0 0.090027,-0.01163 0.1813227,-0.03189 0.2666667,-0.06667 0.1339627,-0.05301 0.2612587,-0.126603 0.3666667,-0.233334 0.044373,-0.04491 0.09632,-0.07936 0.1333333,-0.133333 l 5.0333329,-7.36667 c 0.333035,-0.4862293 0.219563,-1.1669547 -0.266667,-1.5 -0.243114,-0.1665174 -0.532704,-0.2166507 -0.8,-0.1666667 z"
     id="rect3067"
     inkscape:connector-curvature="0" />
  <path
     style="fill:#ffffff;fill-opacity:0.73725492;stroke:none"
     d="m 11.594886,3.2712543 c -0.267296,0.050027 -0.533483,0.223552 -0.7,0.4666667 l -4.3000005,6.3 -1.6333334,-1.6333332 c -0.416736,-0.416736 -1.083264,-0.416736 -1.5,0 -0.4167361,0.416736 -0.4167361,1.083264 0,1.5000002 l 2.3666667,2.366666 0.1666667,0.166666 c 0.044907,0.04437 0.079253,0.09632 0.1333333,0.133334 0.041707,0.02859 0.089387,0.0448 0.1333333,0.06667 0.054507,0.02688 0.1092907,0.04971 0.1666667,0.06667 0.032427,0.0096 0.0672,0.02667 0.099947,0.03328 0.021013,0.0043 0.04544,-0.0032 0.066667,0 0.090027,0.01163 0.176608,0.01163 0.2666666,0 0.090027,-0.01163 0.1813227,-0.03189 0.2666667,-0.06667 0.1339627,-0.05301 0.2612587,-0.126613 0.3666667,-0.233333 0.044373,-0.04491 0.09632,-0.07925 0.1333333,-0.133333 L 12.661499,4.9378677 c 0.333035,-0.4862294 0.219563,-1.1669547 -0.266667,-1.5000001 -0.243114,-0.1665173 -0.532704,-0.2166507 -0.8,-0.1666667 z"
     id="rect3828"
     inkscape:connector-curvature="0" />
</svg>
