<?xml version="1.0" encoding="UTF-8" standalone="no"?>
<svg
   xmlns:dc="http://purl.org/dc/elements/1.1/"
   xmlns:cc="http://creativecommons.org/ns#"
   xmlns:rdf="http://www.w3.org/1999/02/22-rdf-syntax-ns#"
   xmlns:svg="http://www.w3.org/2000/svg"
   xmlns="http://www.w3.org/2000/svg"
   xmlns:xlink="http://www.w3.org/1999/xlink"
   xmlns:sodipodi="http://sodipodi.sourceforge.net/DTD/sodipodi-0.dtd"
   xmlns:inkscape="http://www.inkscape.org/namespaces/inkscape"
   width="16"
   viewBox="0 0 16 16"
   height="16"
   id="svg2"
   version="1.1"
   inkscape:version="0.92.3 (2405546, 2018-03-11)"
   sodipodi:docname="radio-mixed-insensitive-dark.svg">
  <metadata
     id="metadata20">
    <rdf:RDF>
      <cc:Work
         rdf:about="">
        <dc:format>image/svg+xml</dc:format>
        <dc:type
           rdf:resource="http://purl.org/dc/dcmitype/StillImage" />
        <dc:title></dc:title>
      </cc:Work>
    </rdf:RDF>
  </metadata>
  <sodipodi:namedview
     pagecolor="#ffffff"
     bordercolor="#666666"
     borderopacity="1"
     objecttolerance="10"
     gridtolerance="10"
     guidetolerance="10"
     inkscape:pageopacity="0"
     inkscape:pageshadow="2"
     inkscape:window-width="1842"
     inkscape:window-height="1015"
     id="namedview18"
     showgrid="false"
     inkscape:zoom="22.627417"
     inkscape:cx="5.8470385"
     inkscape:cy="5.0125021"
     inkscape:window-x="78"
     inkscape:window-y="27"
     inkscape:window-maximized="1"
     inkscape:current-layer="svg2"
     showguides="true"
     inkscape:guide-bbox="true" />
  <defs
     id="defs4">
    <linearGradient
       inkscape:collect="always"
       id="linearGradient905">
      <stop
         style="stop-color:#14367a;stop-opacity:1"
         offset="0"
         id="stop901" />
      <stop
         style="stop-color:#15367f;stop-opacity:1"
         offset="1"
         id="stop903" />
    </linearGradient>
    <linearGradient
       id="linearGradient3809">
      <stop
         offset="0"
         style="stop-color:#e5e5e5"
         id="stop7" />
      <stop
         offset="1"
         style="stop-color:#f9f9f9"
         id="stop9" />
    </linearGradient>
    <linearGradient
       gradientTransform="translate(0 -16)"
       id="linearGradient3832"
       xlink:href="#linearGradient3809"
       x1="1"
       x2="15"
       gradientUnits="userSpaceOnUse" />
    <linearGradient
       inkscape:collect="always"
       xlink:href="#linearGradient905"
       id="linearGradient3853"
       gradientUnits="userSpaceOnUse"
       gradientTransform="matrix(1.0666667,0,0,1.0666667,-418.66669,-532.65303)"
       x1="402.25"
       y1="507.86218"
       x2="396.61667"
       y2="502.85385" />
    <linearGradient
       inkscape:collect="always"
       xlink:href="#linearGradient905"
       id="linearGradient3856"
       gradientUnits="userSpaceOnUse"
       gradientTransform="matrix(1.0666667,0,0,1.0666667,-418.66669,-532.65303)"
       x1="404"
       y1="514.23718"
       x2="398.375"
       y2="503.70303" />
  </defs>
  <rect
     style="fill:url(#linearGradient3856);fill-opacity:1;stroke:none"
     id="rect3024"
     width="16"
     height="16"
     x="-7.2848013e-07"
     y="-2.4944501e-07"
     rx="8"
     ry="8" />
  <rect
     ry="6.9333334"
     rx="6.9333334"
     y="1.0666665"
     x="1.066666"
     height="13.866667"
     width="13.866667"
     id="rect3026"
     style="fill:url(#linearGradient3853);fill-opacity:1;stroke:none" />
  <path
     inkscape:connector-curvature="0"
     style="opacity:0.1;fill:#ffffff;fill-opacity:1"
     d="M 7.9999995,4e-7 C 3.5817221,4e-7 0,3.5817224 0,8 0,8.168723 0.015097,8.33387 0.025391,8.5 0.2846478,4.3157474 3.7504451,1.0000004 8.0000005,1.0000004 12.249556,1.0000004 15.715354,4.3157474 15.97461,8.5 15.9849,8.33387 16,8.168723 16,8 16,3.5817224 12.418278,4e-7 7.9999995,4e-7 Z"
     id="path4155" />
  <path
     inkscape:connector-curvature="0"
     style="opacity:0.1;fill:#000000;fill-opacity:1"
     d="m 7.9999995,16 c 4.4182775,0 7.9999995,-3.581722 7.9999995,-8 0,-0.168723 -0.0151,-0.33387 -0.02539,-0.5 C 15.715351,11.684253 12.249555,15 7.9999995,15 3.750444,15 0.284646,11.684253 0.02539,7.5 0.0151,7.66613 0,7.831277 0,8 c 0,4.418278 3.581722,8 7.9999995,8 z"
     id="path4155-3" />
  <rect
     ry="1.05"
     rx="1.2105261"
     y="7.7000003"
     x="3"
     height="2.0999999"
     width="10"
     id="rect4157"
     style="opacity:0.1;fill:#000000;fill-opacity:1;stroke:none" />
  <rect
     style="opacity:1;fill:#ffffff;fill-opacity:0.73725492;stroke:none"
     id="rect4153"
     width="10"
     height="2.0999999"
     x="3"
     y="6.9500003"
     rx="1.2105261"
     ry="1.05" />
</svg>
