<?xml version="1.0" encoding="UTF-8" standalone="no"?>
<svg
   xmlns:dc="http://purl.org/dc/elements/1.1/"
   xmlns:cc="http://creativecommons.org/ns#"
   xmlns:rdf="http://www.w3.org/1999/02/22-rdf-syntax-ns#"
   xmlns:svg="http://www.w3.org/2000/svg"
   xmlns="http://www.w3.org/2000/svg"
   xmlns:sodipodi="http://sodipodi.sourceforge.net/DTD/sodipodi-0.dtd"
   xmlns:inkscape="http://www.inkscape.org/namespaces/inkscape"
   viewBox="0 0 16 16"
   id="svg2"
   version="1.1"
   inkscape:version="0.48.5 r10040"
   width="100%"
   height="100%"
   sodipodi:docname="radio-mixed-insensitive.svg">
  <metadata
     id="metadata18">
    <rdf:RDF>
      <cc:Work
         rdf:about="">
        <dc:format>image/svg+xml</dc:format>
        <dc:type
           rdf:resource="http://purl.org/dc/dcmitype/StillImage" />
      </cc:Work>
    </rdf:RDF>
  </metadata>
  <defs
     id="defs16" />
  <sodipodi:namedview
     pagecolor="#ffffff"
     bordercolor="#666666"
     borderopacity="1"
     objecttolerance="10"
     gridtolerance="10"
     guidetolerance="10"
     inkscape:pageopacity="0"
     inkscape:pageshadow="2"
     inkscape:window-width="1280"
     inkscape:window-height="974"
     id="namedview14"
     showgrid="false"
     inkscape:zoom="16.875"
     inkscape:cx="8"
     inkscape:cy="8"
     inkscape:window-x="0"
     inkscape:window-y="25"
     inkscape:window-maximized="1"
     inkscape:current-layer="svg2" />
  <g
     transform="translate(0 -1036.3622)"
     id="g4"
     style="fill:#f2f2f2">
    <path
       style="fill:#f2f2f2"
       d="m 8.0669643,1037.1836 c 4.0755647,0 7.3794647,3.224 7.3794647,7.2009 0,3.9769 -3.3039,7.2009 -7.3794647,7.2009 -4.0755656,0 -7.3794643,-3.224 -7.3794643,-7.2009 0,-3.9769 3.3038987,-7.2009 7.3794643,-7.2009 z"
       id="path6" />
  </g>
  <g
     style="fill:#aaa"
     transform="translate(0 -1036.3622)"
     id="g8">
    <path
       d="M 8 0 C 3.581722 8.8817842e-16 -3.006854e-17 3.581722 0 8 C 0 12.418278 3.581722 16 8 16 C 12.418278 16 16 12.418278 16 8 C 16 3.581722 12.418278 -1.8064254e-15 8 0 z M 8 1 C 11.865993 1 15 4.1340068 15 8 C 15 11.865993 11.865993 15 8 15 C 4.1340068 15 1 11.865993 1 8 C 1 4.1340068 4.1340068 1 8 1 z "
       transform="translate(0 1036.3622)"
       id="path10" />
    <rect
       width="8"
       x="4"
       y="7"
       height="2"
       transform="translate(0 1036.3622)"
       id="rect12" />
  </g>
</svg>
