<?xml version="1.0" encoding="UTF-8" standalone="no"?>
<svg
   xmlns:dc="http://purl.org/dc/elements/1.1/"
   xmlns:cc="http://creativecommons.org/ns#"
   xmlns:rdf="http://www.w3.org/1999/02/22-rdf-syntax-ns#"
   xmlns:svg="http://www.w3.org/2000/svg"
   xmlns="http://www.w3.org/2000/svg"
   xmlns:xlink="http://www.w3.org/1999/xlink"
   xmlns:sodipodi="http://sodipodi.sourceforge.net/DTD/sodipodi-0.dtd"
   xmlns:inkscape="http://www.inkscape.org/namespaces/inkscape"
   viewBox="-288 0 0 16"
   id="svg2"
   version="1.1"
   inkscape:version="0.91 r13725"
   width="18"
   height="13"
   sodipodi:docname="checkbox-checked-insensitive.svg">
  <metadata
     id="metadata18">
    <rdf:RDF>
      <cc:Work
         rdf:about="">
        <dc:format>image/svg+xml</dc:format>
        <dc:type
           rdf:resource="http://purl.org/dc/dcmitype/StillImage" />
        <dc:title></dc:title>
      </cc:Work>
    </rdf:RDF>
  </metadata>
  <defs
     id="defs16">
    <linearGradient
       id="linearGradient3809">
      <stop
         id="stop7"
         style="stop-color:#e5e5e5"
         offset="0" />
      <stop
         id="stop9"
         style="stop-color:#f9f9f9"
         offset="1" />
    </linearGradient>
    <linearGradient
       gradientUnits="userSpaceOnUse"
       x2="15"
       x1="1"
       xlink:href="#linearGradient3809"
       id="linearGradient3832"
       gradientTransform="translate(0,-16)" />
    <linearGradient
       y2="502.85385"
       x2="396.61667"
       y1="507.86218"
       x1="402.25"
       gradientTransform="matrix(0.86666669,0,0,0.86666669,-337.66668,-432.78059)"
       gradientUnits="userSpaceOnUse"
       id="linearGradient3853"
       xlink:href="#linearGradient3053"
       inkscape:collect="always" />
    <linearGradient
       inkscape:collect="always"
       id="linearGradient3053">
      <stop
         style="stop-color:#75afff;stop-opacity:1"
         offset="0"
         id="stop3055" />
      <stop
         style="stop-color:#8cbaff;stop-opacity:1"
         offset="1"
         id="stop3057" />
    </linearGradient>
    <linearGradient
       y2="503.70303"
       x2="398.375"
       y1="514.23718"
       x1="404"
       gradientTransform="matrix(0.86666669,0,0,0.86666669,-337.66668,-432.78059)"
       gradientUnits="userSpaceOnUse"
       id="linearGradient3856"
       xlink:href="#linearGradient3046"
       inkscape:collect="always" />
    <linearGradient
       inkscape:collect="always"
       id="linearGradient3046">
      <stop
         style="stop-color:#87b7ff;stop-opacity:1"
         offset="0"
         id="stop3049" />
      <stop
         style="stop-color:#98c1ff;stop-opacity:1"
         offset="1"
         id="stop3051" />
    </linearGradient>
  </defs>
  <sodipodi:namedview
     pagecolor="#ffffff"
     bordercolor="#666666"
     borderopacity="1"
     objecttolerance="10"
     gridtolerance="10"
     guidetolerance="10"
     inkscape:pageopacity="0"
     inkscape:pageshadow="2"
     inkscape:window-width="1366"
     inkscape:window-height="714"
     id="namedview14"
     showgrid="false"
     inkscape:zoom="4.21875"
     inkscape:cx="-11.543242"
     inkscape:cy="-4.3948654"
     inkscape:window-x="0"
     inkscape:window-y="28"
     inkscape:window-maximized="1"
     inkscape:current-layer="svg2" />
  <rect
     ry="2.6541667"
     rx="2.6541667"
     y="-2.3841858e-07"
     x="2.5"
     height="13"
     width="13"
     id="rect3024"
     style="fill:url(#linearGradient3856);fill-opacity:1;stroke:none" />
  <rect
     style="fill:url(#linearGradient3853);fill-opacity:1;stroke:none"
     id="rect3026"
     width="11.266666"
     height="11.266666"
     x="3.3666668"
     y="0.8666665"
     rx="2.3002779"
     ry="2.3002779" />
  <path
     inkscape:connector-curvature="0"
     id="rect3067"
     d="m 11.920515,3.5246878 c -0.217178,0.040647 -0.433455,0.181636 -0.56875,0.3791667 L 7.8580141,9.0226045 6.5309305,7.6955212 c -0.338598,-0.338598 -0.880152,-0.338598 -1.21875,0 -0.338598,0.3385984 -0.338598,0.8801522 0,1.2187494 l 1.9229169,1.9229174 0.1354167,0.135416 c 0.036487,0.03605 0.064393,0.07826 0.1083333,0.108334 0.033887,0.02323 0.072627,0.0364 0.1083333,0.05417 0.044287,0.02184 0.088799,0.04039 0.1354167,0.05417 0.026347,0.0078 0.0546,0.02167 0.081207,0.02704 0.017073,0.0035 0.03692,-0.0026 0.054167,0 0.073147,0.0094 0.143494,0.0094 0.2166666,0 0.073147,-0.0094 0.1473247,-0.02591 0.2166667,-0.05417 0.1088447,-0.04307 0.2122727,-0.102865 0.2979167,-0.189584 0.036053,-0.03649 0.07826,-0.06448 0.1083333,-0.108333 L 12.787139,4.8788136 C 13.057729,4.4837523 12.965533,3.9306629 12.570472,3.6600636 12.372941,3.5247658 12.137649,3.4840325 11.920471,3.5246445 Z"
     style="opacity:0.2;fill:#000000;fill-opacity:1;stroke:none" />
  <path
     inkscape:connector-curvature="0"
     id="rect3828"
     d="m 11.920515,2.6581685 c -0.217178,0.040647 -0.433455,0.181636 -0.56875,0.3791666 L 7.8580141,8.1560854 6.5309305,6.8290018 c -0.338598,-0.338598 -0.880152,-0.338598 -1.21875,0 -0.338598,0.3385981 -0.338598,0.8801521 0,1.2187504 l 1.9229169,1.9229163 0.1354167,0.1354165 c 0.036487,0.03605 0.064393,0.07826 0.1083333,0.108333 0.033887,0.02323 0.072627,0.0364 0.1083333,0.05417 0.044287,0.02184 0.088799,0.04039 0.1354167,0.05417 0.026347,0.0078 0.0546,0.02167 0.081207,0.02704 0.017073,0.0035 0.03692,-0.0026 0.054167,0 0.073147,0.0094 0.143494,0.0094 0.2166666,0 0.073147,-0.0094 0.1473247,-0.02591 0.2166667,-0.05417 0.1088447,-0.04307 0.2122727,-0.102873 0.2979167,-0.189583 0.036053,-0.03649 0.07826,-0.06439 0.1083333,-0.1083333 L 12.787139,4.012295 C 13.057729,3.6172337 12.965533,3.0641443 12.570472,2.793545 12.372941,2.6582465 12.137649,2.6175131 11.920471,2.6581251 Z"
     style="fill:#e9f1fc;fill-opacity:1;stroke:none" />
</svg>
