<?xml version="1.0" encoding="UTF-8" standalone="no"?>
<svg
   xmlns:dc="http://purl.org/dc/elements/1.1/"
   xmlns:cc="http://creativecommons.org/ns#"
   xmlns:rdf="http://www.w3.org/1999/02/22-rdf-syntax-ns#"
   xmlns:svg="http://www.w3.org/2000/svg"
   xmlns="http://www.w3.org/2000/svg"
   xmlns:sodipodi="http://sodipodi.sourceforge.net/DTD/sodipodi-0.dtd"
   xmlns:inkscape="http://www.inkscape.org/namespaces/inkscape"
   viewBox="-256 0 0 16"
   id="svg2"
   version="1.1"
   inkscape:version="0.91 r13725"
   width="15"
   height="14"
   sodipodi:docname="radio-unselected-insensitive.svg">
  <metadata
     id="metadata14">
    <rdf:RDF>
      <cc:Work
         rdf:about="">
        <dc:format>image/svg+xml</dc:format>
        <dc:type
           rdf:resource="http://purl.org/dc/dcmitype/StillImage" />
        <dc:title></dc:title>
      </cc:Work>
    </rdf:RDF>
  </metadata>
  <defs
     id="defs12" />
  <sodipodi:namedview
     pagecolor="#ffffff"
     bordercolor="#666666"
     borderopacity="1"
     objecttolerance="10"
     gridtolerance="10"
     guidetolerance="10"
     inkscape:pageopacity="0"
     inkscape:pageshadow="2"
     inkscape:window-width="1366"
     inkscape:window-height="714"
     id="namedview10"
     showgrid="false"
     inkscape:zoom="16.875"
     inkscape:cx="-2.162963"
     inkscape:cy="8"
     inkscape:window-x="0"
     inkscape:window-y="28"
     inkscape:window-maximized="1"
     inkscape:current-layer="svg2" />
  <path
     inkscape:connector-curvature="0"
     id="path6"
     d="m 7.5000003,0.54355 c 3.6573317,0 6.6221837,2.89065 6.6221837,6.45645 0,3.5658 -2.964852,6.45645 -6.6221837,6.45645 -3.6573314,0 -6.62218435,-2.89065 -6.62218435,-6.45645 0,-3.5658 2.96485295,-6.45645 6.62218435,-6.45645 z"
     style="fill:#f2f2f2" />
  <path
     inkscape:connector-curvature="0"
     id="path8"
     d="m 7.5,0 c -3.8659932,0 -7,3.1340067 -7,7 0,3.865993 3.1340068,7 7,7 3.865993,0 7,-3.134007 7,-7 0,-3.8659933 -3.134007,-7 -7,-7 z m 0,0.875 c 3.382744,0 6.125,2.7422559 6.125,6.125 0,3.382744 -2.742256,6.125 -6.125,6.125 C 4.1172559,13.125 1.375,10.382744 1.375,7 1.375,3.6172559 4.1172559,0.875 7.5,0.875 Z"
     style="fill:#aaaaaa" />
</svg>
