/* XPM */
static char * close_active_xpm[] = {
"24 24 28 1",
" 	c None",
".	c #B0B0B0",
"+	c #DFDFDF",
"@	c #E0DCDD",
"#	c #DE8891",
"$	c #DE5660",
"%	c #E0414C",
"&	c #DE5661",
"*	c #DF8992",
"=	c #E1ACB2",
"-	c #E0424B",
";	c #EE4B52",
">	c #F25157",
",	c #EE4A52",
"'	c #DF424D",
")	c #E1AFB5",
"!	c #E2ABB2",
"~	c #E43E48",
"{	c #E33E48",
"]	c #E0DCDE",
"^	c #E0404B",
"/	c #E0424D",
"(	c #DE878F",
"_	c #DE8A92",
":	c #DE555F",
"<	c #DE5862",
"[	c #E1434E",
"}	c #DFDEDE",
"........................",
"++++++++++++++++++++++++",
"++++++++++++++++++++++++",
"++++++++++++++++++++++++",
"++++++++++++++++++++++++",
"++++++++@#$%%&*+++++++++",
"+++++++=-;>>>>,')+++++++",
"++++++!~>>>>>>>>{)++++++",
"+++++]^>>>>>>>>>>/++++++",
"+++++(;>>>>>>>>>>,_+++++",
"+++++:>>>>>>>>>>>><+++++",
"+++++^>>>>>>>>>>>>[+++++",
"+++++^>>>>>>>>>>>>[+++++",
"+++++:>>>>>>>>>>>><+++++",
"+++++(;>>>>>>>>>>,_+++++",
"+++++}/>>>>>>>>>>'++++++",
"++++++!~>>>>>>>>{)++++++",
"+++++++=-;>>>>,')+++++++",
"++++++++@#$%%&*+++++++++",
"++++++++++++++++++++++++",
"++++++++++++++++++++++++",
"++++++++++++++++++++++++",
"++++++++++++++++++++++++",
"++++++++++++++++++++++++"};
