/* XPM */
static char * close_prelight_xpm[] = {
"24 24 44 1",
" 	c None",
".	c #B0B0B0",
"+	c #DFDFDF",
"@	c #E3D7DA",
"#	c #DD828B",
"$	c #DF515C",
"%	c #E03D47",
"&	c #DF525D",
"*	c #DE848D",
"=	c #E1DBDD",
"-	c #E1A4AB",
";	c #E03F49",
">	c #EF4B52",
",	c #F25056",
"'	c #DF404A",
")	c #E1A7AE",
"!	c #E53E48",
"~	c #E53D48",
"{	c #E1A8AF",
"]	c #E64950",
"^	c #DC424B",
"/	c #DB424A",
"(	c #E74950",
"_	c #E0404B",
":	c #A21F2C",
"<	c #D63F48",
"[	c #D53E47",
"}	c #DD434B",
"|	c #EE4A52",
"1	c #DE868E",
"2	c #D84048",
"3	c #DE555E",
"4	c #E13D47",
"5	c #E0404A",
"6	c #DE555F",
"7	c #DF848D",
"8	c #EE4A51",
"9	c #DE8890",
"0	c #DFDEDE",
"a	c #E43C47",
"b	c #E1A9B0",
"c	c #DF3F4A",
"d	c #E0DCDD",
"e	c #DD535D",
"........................",
"++++++++++++++++++++++++",
"++++++++++++++++++++++++",
"++++++++++++++++++++++++",
"++++++++++++++++++++++++",
"++++++++@#$%%&*=++++++++",
"+++++++-;>,,,,>')+++++++",
"++++++-!,,,,,,,,~{++++++",
"+++++@;,]^,,,,/(,_=+++++",
"+++++#>,^:<,,[:},|1+++++",
"+++++$,,,<:<[:2,,,3+++++",
"+++++4,,,,<::2,,,,;+++++",
"+++++%,,,,[::<,,,,5+++++",
"+++++&,,,[:2<:<,,,6+++++",
"+++++7>,/:2,,<:},89+++++",
"+++++=',(},,,,}(,_0+++++",
"++++++)~,,,,,,,,ab++++++",
"+++++++{c|,,,,8_b+++++++",
"++++++++d1e;;69d++++++++",
"++++++++++++++++++++++++",
"++++++++++++++++++++++++",
"++++++++++++++++++++++++",
"++++++++++++++++++++++++",
"++++++++++++++++++++++++"};
