/* XPM */
static char * close_inactive_xpm[] = {
"24 24 23 1",
" 	c None",
".	c #B0B0B0",
"+	c #DFDFDF",
"@	c #CECFD0",
"#	c #C2C3C3",
"$	c #BEBEBE",
"%	c #C2C2C3",
"&	c #DDDDDD",
"*	c #BDBDBD",
"=	c #C5C5C5",
"-	c #C8C8C8",
";	c #BEBFBF",
">	c #DEDEDE",
",	c #DBDBDC",
"'	c #BFBFBF",
")	c #C7C7C7",
"!	c #DCDDDD",
"~	c #BEBEBF",
"{	c #CDCECF",
"]	c #CECED0",
"^	c #C1C1C2",
"/	c #BDBDBE",
"(	c #CFCFD1",
"........................",
"++++++++++++++++++++++++",
"++++++++++++++++++++++++",
"++++++++++++++++++++++++",
"++++++++++++++++++++++++",
"+++++++++@#$$%@+++++++++",
"+++++++&*=----=;>+++++++",
"++++++,'-------)'!++++++",
"++++++$----------~++++++",
"+++++{=----------=]+++++",
"+++++^------------%+++++",
"+++++/------------~+++++",
"+++++/------------~+++++",
"+++++^------------%+++++",
"+++++{=----------=]+++++",
"++++++*---------)$++++++",
"++++++,'-------)'!++++++",
"+++++++&*=----=;>+++++++",
"+++++++++@#$$%(+++++++++",
"++++++++++++++++++++++++",
"++++++++++++++++++++++++",
"++++++++++++++++++++++++",
"++++++++++++++++++++++++",
"++++++++++++++++++++++++"};
