/* XPM */
static char * hide_active_xpm[] = {
"24 24 31 1",
" 	c None",
".	c #B0B0B0",
"+	c #DFDFDF",
"@	c #E1E0DC",
"#	c #E1C47F",
"$	c #E2B444",
"%	c #E5B12B",
"&	c #E5B02B",
"*	c #E3B545",
"=	c #E1C37F",
"-	c #E1E0DD",
";	c #E3D1A8",
">	c #E4AF2B",
",	c #F6C031",
"'	c #FAC637",
")	c #E4B02B",
"!	c #E3D2A9",
"~	c #E3D2A8",
"{	c #EAB226",
"]	c #FAC537",
"^	c #E5AF2B",
"/	c #E5AF2C",
"(	c #E1C47E",
"_	c #E1C480",
":	c #E3B444",
"<	c #E2B545",
"[	c #E6B02A",
"}	c #E6B12C",
"|	c #E0DFDD",
"1	c #E0E0DD",
"2	c #E0C47E",
"........................",
"++++++++++++++++++++++++",
"++++++++++++++++++++++++",
"++++++++++++++++++++++++",
"++++++++++++++++++++++++",
"++++++++@#$%&*=-++++++++",
"+++++++;>,'''',)!+++++++",
"++++++~{]'''''']{!++++++",
"+++++@^]'''''''']/@+++++",
"+++++(,'''''''''',_+++++",
"+++++:''''''''''''<+++++",
"+++++[''''''''''''}+++++",
"+++++[''''''''''''}+++++",
"+++++:''''''''''''<+++++",
"+++++(,'''''''''',_+++++",
"+++++|&]''''''''])1+++++",
"++++++~{]'''''']{!++++++",
"+++++++;>,'''',)!+++++++",
"++++++++@2$%&*=-++++++++",
"++++++++++++++++++++++++",
"++++++++++++++++++++++++",
"++++++++++++++++++++++++",
"++++++++++++++++++++++++",
"++++++++++++++++++++++++"};
