/* XPM */
static char * hide_prelight_xpm[] = {
"24 24 48 1",
" 	c None",
".	c #B0B0B0",
"+	c #DFDFDF",
"@	c #E4E0D7",
"#	c #E1C278",
"$	c #E3B33D",
"%	c #E6AF25",
"&	c #E1C178",
"*	c #E3DFD7",
"=	c #E3CFA0",
"-	c #E6B028",
";	c #F6C031",
">	c #FAC536",
",	c #E6AF28",
"'	c #E2CFA0",
")	c #EBB325",
"!	c #E6AF29",
"~	c #E3E0D7",
"{	c #E1C279",
"]	c #E0C27A",
"^	c #E3B33F",
"/	c #E4B441",
"(	c #DBA32B",
"_	c #C08522",
":	c #DCA42B",
"<	c #E7B027",
"[	c #E7AF26",
"}	c #DCA52C",
"|	c #C28723",
"1	c #DDA52C",
"2	c #E6AF27",
"3	c #E3B340",
"4	c #E1C37C",
"5	c #E0C37B",
"6	c #E3E0D9",
"7	c #E5AE29",
"8	c #E6AF2A",
"9	c #E2CFA2",
"0	c #EBB225",
"a	c #E3D1A3",
"b	c #E3D0A3",
"c	c #E6B02A",
"d	c #E4AF29",
"e	c #E2E0DB",
"f	c #E0C27B",
"g	c #E4B341",
"h	c #E2B341",
"i	c #E0C37C",
"........................",
"++++++++++++++++++++++++",
"++++++++++++++++++++++++",
"++++++++++++++++++++++++",
"++++++++++++++++++++++++",
"++++++++@#$%%$&*++++++++",
"+++++++=-;>>>>;,=+++++++",
"++++++')>>>>>>>>)'++++++",
"+++++*,>>>>>>>>>>!~+++++",
"+++++{;>>>>>>>>>>;]+++++",
"+++++^>>>>>>>>>>>>/+++++",
"+++++%>(________:><+++++",
"+++++[>}||||||||1>2+++++",
"+++++3>>>>>>>>>>>>/+++++",
"+++++4;>>>>>>>>>>;5+++++",
"+++++67>>>>>>>>>>86+++++",
"++++++90>>>>>>>>0a++++++",
"+++++++bc;>>>>;db+++++++",
"++++++++efg,,hie++++++++",
"++++++++++++++++++++++++",
"++++++++++++++++++++++++",
"++++++++++++++++++++++++",
"++++++++++++++++++++++++",
"++++++++++++++++++++++++"};
