/* XPM */
static char * maximize_prelight_xpm[] = {
"24 24 54 1",
" 	c None",
".	c #B0B0B0",
"+	c #DFDFDF",
"@	c #D7E2DA",
"#	c #78D481",
"$	c #41D14B",
"%	c #28D234",
"&	c #28D334",
"*	c #40D14A",
"=	c #77D47E",
"-	c #D1E3D6",
";	c #9FDBA6",
">	c #2CD137",
",	c #34E544",
"'	c #39EA49",
")	c #2AD137",
"!	c #9DDAA3",
"~	c #A0DCA7",
"{	c #29D735",
"]	c #28D736",
"^	c #D9E1DB",
"/	c #2DD139",
"(	c #29C233",
"_	c #1FA723",
":	c #20A925",
"<	c #34DD42",
"[	c #7BD583",
"}	c #34E543",
"|	c #37E546",
"1	c #169117",
"2	c #0B7407",
"3	c #21AC26",
"4	c #43D14E",
"5	c #2AC433",
"6	c #36E345",
"7	c #20AA25",
"8	c #2BD137",
"9	c #148C14",
"0	c #2BD238",
"a	c #45D14E",
"b	c #2BC534",
"c	c #7DD484",
"d	c #34E443",
"e	c #22AF28",
"f	c #DCE0DD",
"g	c #2CD139",
"h	c #35DF43",
"i	c #20A924",
"j	c #29C132",
"k	c #A3DBA9",
"l	c #28D634",
"m	c #2CD037",
"n	c #DBE1DD",
"o	c #42D04E",
"........................",
"++++++++++++++++++++++++",
"++++++++++++++++++++++++",
"++++++++++++++++++++++++",
"++++++++++++++++++++++++",
"++++++++@#$%&*=-++++++++",
"+++++++;>,'''',)!+++++++",
"++++++~{'''''''']!++++++",
"+++++^/'''(___:<')-+++++",
"+++++[}'''|12223',=+++++",
"+++++4''56'|1227''*+++++",
"+++++8''396'|127''&+++++",
"+++++0''3296'|17''%+++++",
"+++++a''32296'|b''$+++++",
"+++++cd'e22296''',#+++++",
"+++++fg'h3iiij'''>@+++++",
"++++++kl''''''''{;++++++",
"+++++++kgd''''}m~+++++++",
"++++++++nca88o[^++++++++",
"++++++++++++++++++++++++",
"++++++++++++++++++++++++",
"++++++++++++++++++++++++",
"++++++++++++++++++++++++",
"++++++++++++++++++++++++"};
