/* XPM */
static char * maximize_active_xpm[] = {
"24 24 29 1",
" 	c None",
".	c #B0B0B0",
"+	c #DFDFDF",
"@	c #DDDFDE",
"#	c #7FD587",
"$	c #46D051",
"%	c #2DD23A",
"&	c #45D050",
"*	c #7ED585",
"=	c #DCE0DD",
"-	c #A8DCAE",
";	c #2DD139",
">	c #34E443",
",	c #3AEA4A",
"'	c #A5DCAB",
")	c #2AD537",
"!	c #29D537",
"~	c #A4DBAA",
"{	c #2ED13A",
"]	c #2CD139",
"^	c #DBE1DD",
"/	c #80D588",
"(	c #34E544",
"_	c #7CD583",
":	c #48D052",
"<	c #45D14E",
"[	c #2FD33B",
"}	c #2FD03A",
"|	c #2ED139",
"........................",
"++++++++++++++++++++++++",
"++++++++++++++++++++++++",
"++++++++++++++++++++++++",
"++++++++++++++++++++++++",
"++++++++@#$%%&*=++++++++",
"+++++++-;>,,,,>;'+++++++",
"++++++-),,,,,,,,!~++++++",
"+++++={,,,,,,,,,,]^+++++",
"+++++/>,,,,,,,,,,(_+++++",
"+++++:,,,,,,,,,,,,<+++++",
"+++++[,,,,,,,,,,,,]+++++",
"+++++[,,,,,,,,,,,,]+++++",
"+++++:,,,,,,,,,,,,<+++++",
"+++++/>,,,,,,,,,,(_+++++",
"++++++},,,,,,,,,,|=+++++",
"++++++-),,,,,,,,!~++++++",
"+++++++-;>,,,,>;'+++++++",
"++++++++@#$%%&*=++++++++",
"++++++++++++++++++++++++",
"++++++++++++++++++++++++",
"++++++++++++++++++++++++",
"++++++++++++++++++++++++",
"++++++++++++++++++++++++"};
