/* XPM */
static char * top_left_inactive_xpm[] = {
"5 24 3 1",
" 	c None",
".	c #B0B0B0",
"+	c #DFDFDF",
" ....",
".++++",
".++++",
".++++",
".++++",
".++++",
".++++",
".++++",
".++++",
".++++",
".++++",
".++++",
".++++",
".++++",
".++++",
".++++",
".++++",
".++++",
".++++",
".++++",
".++++",
".++++",
".++++",
".++++"};
