<?xml version="1.0" encoding="UTF-8" standalone="no"?>
<!-- Created with Inkscape (http://www.inkscape.org/) -->

<svg
   xmlns:dc="http://purl.org/dc/elements/1.1/"
   xmlns:cc="http://creativecommons.org/ns#"
   xmlns:rdf="http://www.w3.org/1999/02/22-rdf-syntax-ns#"
   xmlns:svg="http://www.w3.org/2000/svg"
   xmlns="http://www.w3.org/2000/svg"
   xmlns:sodipodi="http://sodipodi.sourceforge.net/DTD/sodipodi-0.dtd"
   xmlns:inkscape="http://www.inkscape.org/namespaces/inkscape"
   width="16"
   height="16"
   viewBox="0 0 4.2333331 4.2333331"
   version="1.1"
   id="svg8"
   inkscape:version="0.92.3 (2405546, 2018-03-11)"
   sodipodi:docname="close-hover.svg">
  <defs
     id="defs2" />
  <sodipodi:namedview
     id="base"
     pagecolor="#ffffff"
     bordercolor="#666666"
     borderopacity="1.0"
     inkscape:pageopacity="0.0"
     inkscape:pageshadow="2"
     inkscape:zoom="15.839192"
     inkscape:cx="3.0186958"
     inkscape:cy="5.000382"
     inkscape:document-units="mm"
     inkscape:current-layer="layer1"
     showgrid="false"
     inkscape:window-width="1293"
     inkscape:window-height="704"
     inkscape:window-x="67"
     inkscape:window-y="26"
     inkscape:window-maximized="1" />
  <metadata
     id="metadata5">
    <rdf:RDF>
      <cc:Work
         rdf:about="">
        <dc:format>image/svg+xml</dc:format>
        <dc:type
           rdf:resource="http://purl.org/dc/dcmitype/StillImage" />
        <dc:title></dc:title>
      </cc:Work>
    </rdf:RDF>
  </metadata>
  <g
     inkscape:label="Layer 1"
     inkscape:groupmode="layer"
     id="layer1"
     transform="translate(-47.020238,-65.829762)">
    <g
       transform="matrix(0.26458333,0,0,0.26458333,-30.502678,123.14852)"
       style="display:inline"
       id="close_focused_prelight"
       inkscape:label="#g1669">
      <rect
         ry="1.6930764e-05"
         y="-216.63782"
         x="293"
         height="16"
         width="16"
         id="rect1577"
         style="opacity:0;fill:#000000;fill-opacity:1;stroke:none;stroke-width:0.47432083;stroke-linejoin:miter;stroke-miterlimit:4;stroke-dasharray:none;stroke-opacity:1;paint-order:markers stroke fill" />
      <g
         inkscape:label="#g879"
         transform="translate(294,-215.63782)"
         id="titlebutton-close-hover-1"
         style="enable-background:new">
        <g
           transform="translate(-4.9999997,-1033.3622)"
           id="g8">
          <path
             style="fill:#d52735;fill-opacity:1;fill-rule:evenodd;stroke:none"
             d="m 12.000061,1047.3622 c 3.865929,0 6.999939,-3.134 6.999939,-7 0,-3.866 -3.13401,-7 -6.999939,-7 -3.8660427,0 -7.0000616,3.134 -7.0000616,7 0,3.866 3.1340189,7 7.0000616,7"
             id="path2-62"
             inkscape:connector-curvature="0" />
          <path
             style="fill:#f25056;fill-opacity:1;fill-rule:evenodd;stroke:none"
             d="m 12.000067,1046.8623 c 3.589781,0 6.499933,-2.9103 6.499933,-6.5001 0,-3.5899 -2.910152,-6.5 -6.499933,-6.5 -3.5899136,0 -6.5000676,2.9101 -6.5000676,6.5 0,3.5898 2.910154,6.5001 6.5000676,6.5001"
             id="path4-9"
             inkscape:connector-curvature="0" />
          <path
             style="opacity:0.5;fill:#000000;fill-opacity:1;stroke:none;stroke-width:2;stroke-linecap:round;stroke-linejoin:round;stroke-miterlimit:4;stroke-dasharray:none;stroke-opacity:1;enable-background:new"
             d="m 9.1715729,1037.5338 c -0.3917372,0.3917 -0.3917372,1.0224 0,1.4142 l 1.4142131,1.4142 -1.4142131,1.4142 c -0.3917372,0.3918 -0.3917372,1.0225 0,1.4142 0.3917371,0.3918 1.0224761,0.3918 1.4142131,0 L 12,1041.7764 l 1.414214,1.4142 c 0.391737,0.3918 1.022476,0.3918 1.414213,0 0.391737,-0.3917 0.391737,-1.0224 0,-1.4142 l -1.414213,-1.4142 1.414213,-1.4142 c 0.391737,-0.3918 0.391737,-1.0225 0,-1.4142 -0.391737,-0.3918 -1.022476,-0.3918 -1.414213,0 L 12,1038.948 l -1.414214,-1.4142 c -0.391737,-0.3918 -1.022476,-0.3918 -1.4142131,0 z"
             id="path6"
             inkscape:connector-curvature="0" />
        </g>
      </g>
    </g>
  </g>
</svg>
