/* XPM */
static char * close_pressed_xpm[] = {
"24 24 15 1",
" 	c None",
".	c #D52735",
"+	c #D52835",
"@	c #CF2634",
"#	c #D22734",
"$	c #D02634",
"%	c #72151C",
"&	c #7D171F",
"*	c #CC2533",
"=	c #6A131A",
"-	c #7C171F",
";	c #D52736",
">	c #7B161F",
",	c #CB2533",
"'	c #CA2532",
"                        ",
"                        ",
"                        ",
"                        ",
"                        ",
"          ...+          ",
"        ........        ",
"       ..........       ",
"      ...@#..#@...      ",
"      ..$%&**&%$..      ",
"     ...#&=--=&#..+     ",
"     ;...*&==>,....     ",
"     ....*&==>'....     ",
"     ...#&=--=&#..+     ",
"      ..$%&**&%$..      ",
"      ...$#..#$...      ",
"       ..........       ",
"        ........        ",
"          .;;.          ",
"                        ",
"                        ",
"                        ",
"                        ",
"                        "};
