/* XPM */
static char * close_prelight_xpm[] = {
"24 24 27 1",
" 	c None",
".	c #DF3540",
"+	c #E23944",
"@	c #DF3541",
"#	c #E23A44",
"$	c #F04D54",
"%	c #F25056",
"&	c #E13A44",
"*	c #E8414A",
"=	c #E7414A",
"-	c #EB4E54",
";	c #EF4F55",
">	c #EC4E54",
",	c #812B2E",
"'	c #8E2F33",
")	c #E84D52",
"!	c #822B2E",
"~	c #F04E54",
"{	c #79282B",
"]	c #8D2F32",
"^	c #DF3640",
"/	c #E33A45",
"(	c #8C2E32",
"_	c #E74C52",
":	c #E64C52",
"<	c #E03541",
"[	c #E23A43",
"                        ",
"                        ",
"                        ",
"                        ",
"                        ",
"          .++@          ",
"        #$%%%%$&        ",
"       *%%%%%%%%=       ",
"      #%%-;%%;-%%#      ",
"      $%>,'))'!>%~      ",
"     .%%;'{]]{';%%^     ",
"     /%%%)'{{(_%%%#     ",
"     #%%%)'{{(:%%%#     ",
"     <%%;'{]]{';%%^     ",
"      $%>!'))'!>%$      ",
"      &%%>;%%;>%%[      ",
"       =%%%%%%%%=       ",
"        #~%%%%$[        ",
"          @##@          ",
"                        ",
"                        ",
"                        ",
"                        ",
"                        "};
