/* XPM */
static char * C:\Users\crime\Shared\macos\metacity_1\close_focused_active_xpm[] = {
"20 18 57 1",
" 	c None",
".	c #F0F0EF",
"+	c #F0F0F0",
"@	c #EFF0F0",
"#	c #EEE5E5",
"$	c #E2AEAF",
"%	c #E07579",
"&	c #E04850",
"*	c #E14850",
"=	c #E0767A",
"-	c #E2AFB0",
";	c #EDE6E6",
">	c #E7C7C7",
",	c #E14F55",
"'	c #EF4B52",
")	c #F25056",
"!	c #E05158",
"~	c #E7C9C9",
"{	c #EFF0EF",
"]	c #E6C7C7",
"^	c #E53F49",
"/	c #E5404A",
"(	c #E7CACA",
"_	c #EDE5E5",
":	c #E64950",
"<	c #DC424B",
"[	c #DB424A",
"}	c #E74950",
"|	c #E15259",
"1	c #EEE6E6",
"2	c #A21F2C",
"3	c #D63F48",
"4	c #D53E47",
"5	c #DD434B",
"6	c #EE4A52",
"7	c #E3B1B1",
"8	c #F0EFEF",
"9	c #E07478",
"0	c #D84048",
"a	c #E07A7D",
"b	c #EFEFF0",
"c	c #E15057",
"d	c #E07679",
"e	c #E07A7E",
"f	c #E3AEB0",
"g	c #EE4A51",
"h	c #E2B1B3",
"i	c #EFEFEF",
"j	c #E0545A",
"k	c #EDE7E6",
"l	c #E7C8CA",
"m	c #E43F49",
"n	c #E6CACC",
"o	c #E05058",
"p	c #E6CBCC",
"q	c #DF787B",
"r	c #E14E55",
".+.+.+.+.+.+.++..+.+",
"++++++++++++++++++++",
"+@+@+@#$%&*=-;@++@+@",
".....>,'))))'!~.....",
"{+{+]^))))))))/({+{+",
".@._,):<))))[})|1@.@",
".@.$')<23))425)67@.@",
"@8@9)))323420)))a8@8",
"+{+*))))3220)))),{+{",
"+b+&))))4223))))cb+b",
"+{+d)))420323)))e{+{",
"bbbf')[20))325)ghbbb",
"{i{_!)}5))))5})jki{i",
"b{b{l/))))))))mnb{b{",
"i@i@i(o6))))gjpii@i@",
"i{i{i{;7q,rahk{ii{i{",
"88888888888888888888",
"ibibibibibibibbiibib"};
