/* XPM */
static char *close_prelight[] = {
/* columns rows colors chars-per-pixel */
"22 20 89 1 ",
"  c #A3202D",
". c #A4202D",
"X c #A8222F",
"o c #AE2733",
"O c #AF2733",
"+ c #B12834",
"@ c #B32935",
"# c #DB303C",
"$ c #DB323C",
"% c #DC313D",
"& c #DD323E",
"* c #C83640",
"= c #C93741",
"- c #CA3741",
"; c #CA3841",
": c #CB3841",
"> c #CB3842",
", c #CC3942",
"< c #CE3A44",
"1 c #CF3B44",
"2 c #DF3540",
"3 c #DF3640",
"4 c #DF3641",
"5 c #D03B45",
"6 c #D03C45",
"7 c #D13C45",
"8 c #D23C45",
"9 c #D33D45",
"0 c #D33D46",
"q c #D53E46",
"w c #D53E47",
"e c #D63E47",
"r c #D63F47",
"t c #E03641",
"y c #E03741",
"u c #E13741",
"i c #E13642",
"p c #E13843",
"a c #E23A44",
"s c #E33B44",
"d c #E23A45",
"f c #E33A45",
"g c #E33B45",
"h c #E33B46",
"j c #E43C46",
"k c #E63E48",
"l c #E63F48",
"z c #DC424A",
"x c #E8424B",
"c c #E9434B",
"v c #E9444C",
"b c #EA444D",
"n c #EA454D",
"m c #EB454D",
"M c #EB464E",
"N c #EB474E",
"B c #EC474E",
"V c #EC474F",
"C c #EC484F",
"Z c #E94A51",
"A c #E94B52",
"S c #EA4B52",
"D c #EC4850",
"F c #ED4850",
"G c #ED4951",
"H c #EE4950",
"J c #EE4951",
"K c #ED4A51",
"L c #EB4C52",
"P c #EB4C53",
"I c #EB4D53",
"U c #EC4C53",
"Y c #EC4D53",
"T c #ED4D53",
"R c #EC4D54",
"E c #ED4D54",
"W c #EE4D54",
"Q c #ED4E54",
"! c #EE4E54",
"~ c #EF4F55",
"^ c #F14F55",
"/ c #F24F55",
"( c #F24F56",
") c #F25056",
"_ c #F35056",
"` c #F35156",
"' c #F25157",
"] c #F35157",
"[ c None",
/* pixels */
"[[[[[[[[[[[[[[[[[[[[[[",
"[[[[[[[[[[[[[[[[[[[[[[",
"[[[[[[[[&t4&[[[[[[[[[[",
"[[[[[[snVVnKnp[[[[[[[[",
"[[[[[lK/]]]//Vj[[[[[[[",
"[[[[lKEE]]//SEKs[[[[[[",
"[[[sKUq5E//S>zEVt[[[[[",
"[[[n/U-@5ES-+qT/x[[[[[",
"[[&V]]S-@<-oqE]]c[[[[[",
"[[tV]]/S- X8E]/]c&[[[[",
"[[4S]/]S*.o<E/]]c4[[[[",
"[[&V]]S-O<-oqE]]x[[[[[",
"[[[V/K;@8ES-+wE/l[[[[[",
"[[[sKSw8E]/S,zEnp[[[[[",
"[[[[lKEE]//]TEKs[[[[[[",
"[[[[[lK/]]]//Vs[[[[[[[",
"[[[[[[sbnCCnct[[[[[[[[",
"[[[[[[[[$t4$[[[[[[[[[[",
"[[[[[[[[[[[[[[[[[[[[[[",
"[[[[[[[[[[[[[[[[[[[[[["
};
