/* XPM */
static char * C:\Users\crime\Shared\macos\metacity_1\close_focused_active_xpm[] = {
"20 18 58 1",
" 	c None",
".	c #F0F0EF",
"+	c #F0F0F0",
"@	c #EFF0F0",
"#	c #EDE5E5",
"$	c #E2AEAF",
"%	c #E07579",
"&	c #E14850",
"*	c #E04850",
"=	c #E1767A",
"-	c #E2AFB0",
";	c #EEE6E6",
">	c #E7C7C7",
",	c #E14F55",
"'	c #EF4B52",
")	c #F25056",
"!	c #E05158",
"~	c #E7C9C9",
"{	c #EFF0EF",
"]	c #E7C7C8",
"^	c #E53F49",
"/	c #E5404A",
"(	c #E7CACA",
"_	c #EEE5E4",
":	c #E64950",
"<	c #DC424B",
"[	c #DB424A",
"}	c #E74950",
"|	c #E15259",
"1	c #E2AEAE",
"2	c #A21F2C",
"3	c #D63F48",
"4	c #D53E47",
"5	c #DD434B",
"6	c #EE4A52",
"7	c #E3B1B1",
"8	c #F0EFEF",
"9	c #D84048",
"0	c #E07A7D",
"a	c #EFEFF0",
"b	c #E15057",
"c	c #E07A7E",
"d	c #E3AEB0",
"e	c #EE4A51",
"f	c #E2B1B3",
"g	c #EFEFEF",
"h	c #EDE6E5",
"i	c #E0535A",
"j	c #EDE7E6",
"k	c #E43F49",
"l	c #E6CBCB",
"m	c #E7C9CA",
"n	c #E6CBCC",
"o	c #EDE6E6",
"p	c #E3B0B1",
"q	c #DF787B",
"r	c #E14E55",
"s	c #E2B2B3",
".+.+.+.+.+.+.++..+.+",
"++++++++++++++++++++",
"+@+@+#$%&*=-;@@++@+@",
"....>,'))))'!~......",
"{+{]^))))))))/({{+{+",
".@_,):<))))[})|;.@.@",
".@1')<23))425)67.@.@",
"@8%)))323429)))0@8@8",
"+{&))))3229)))),+{+{",
"+a&))))4223))))b+a+a",
"+{=)))429323)))c+{+{",
"aad')[29))325)efaaaa",
"{gh!)}5))))5})ij{g{g",
"a{a~/))))))))klaa{a{",
"g@g@m!6))))ein@gg@g@",
"g{g{gopqr,0so{{gg{g{",
"88888888888888888888",
"gagagagagagagaaggaga"};
