/* XPM */
static char *close_active[] = {
/* columns rows colors chars-per-pixel */
"22 20 33 1 ",
"  c #DB2F3C",
". c #DC313C",
"X c #DC313D",
"o c #DF343F",
"O c #DE3540",
"+ c #DF3540",
"@ c #DF3541",
"# c #E03642",
"$ c #E03742",
"% c #E23944",
"& c #E23A44",
"* c #E33B45",
"= c #E53E47",
"- c #E63E48",
"; c #E8424A",
": c #E9424B",
"> c #E9434B",
", c #EA444C",
"< c #EA444D",
"1 c #EA454D",
"2 c #EB464E",
"3 c #EB474E",
"4 c #EC474F",
"5 c #EC4850",
"6 c #ED4850",
"7 c #ED4950",
"8 c #EF4B52",
"9 c #F14E54",
"0 c #F14F55",
"q c #F25056",
"w c #F25157",
"e c #F35157",
"r c None",
/* pixels */
"rrrrrrrrrrrrrrrrrrrrrr",
"rrrrrrrrrrrrrrrrrrrrrr",
"rrrrrrrr.Oo.rrrrrrrrrr",
"rrrrrr%14641:#rrrrrrrr",
"rrrrr=69eeee91*rrrrrrr",
"rrrr=8eee9eeee8%rrrrrr",
"rrr%8ee9e9e9eee1#rrrrr",
"rrr199eeeee9e9e9-rrrrr",
"rrX1eeeee9eeeeee;rrrrr",
"rrO7e8eeeeee8eee:Orrrr",
"rrO8ee8e99e8eeee1Orrrr",
"rrX1eeeeeeeeee8e:rrrrr",
"rrr19eee9eeee0e8-rrrrr",
"rrr%7ee9ee990ee1#rrrrr",
"rrrr;8eeeeeeee7%rrrrrr",
"rrrrr*78eeeee1*rrrrrrr",
"rrrrrr*18141:#rrrrrrrr",
"rrrrrrrr.OO rrrrrrrrrr",
"rrrrrrrrrrrrrrrrrrrrrr",
"rrrrrrrrrrrrrrrrrrrrrr"
};
