/* XPM */
static char * C:\Users\crime\Shared\macos\metacity_1\close_focused_normal_xpm[] = {
"20 18 48 1",
" 	c None",
".	c #F0F0EF",
"+	c #F0F0F0",
"@	c #EFF0F0",
"#	c #EEE7E7",
"$	c #E3B2B4",
"%	c #E07C7F",
"&	c #E1545B",
"*	c #E0545B",
"=	c #E07D81",
"-	c #E4B4B5",
";	c #EDE8E8",
">	c #E8CDCC",
",	c #E0565B",
"'	c #EE4C52",
")	c #F25157",
"!	c #EE4B52",
"~	c #DF595F",
"{	c #E8CECE",
"]	c #EFF0EF",
"^	c #E8CCCC",
"/	c #E4434C",
"(	c #E3454E",
"_	c #E7CECE",
":	c #EDE7E7",
"<	c #E0545A",
"[	c #E0585E",
"}	c #EDE8E7",
"|	c #E2B1B3",
"1	c #E3B4B5",
"2	c #F0EFEF",
"3	c #E07A7D",
"4	c #E07F82",
"5	c #E15159",
"6	c #E1595F",
"7	c #EFEFF0",
"8	c #E2B3B6",
"9	c #EFEFEF",
"0	c #EDE6E6",
"a	c #E0575D",
"b	c #EDE9E8",
"c	c #E8CBCD",
"d	c #E7CDCF",
"e	c #E7CDCD",
"f	c #E7CECF",
"g	c #E3B2B3",
"h	c #E07D80",
"i	c #E3B3B4",
".+.+.+.+.+.+.++..+.+",
"++++++++++++++++++++",
"+@+@+@#$%&*=-;@++@+@",
".....>,'))))!~{.....",
"]+]+^/))))))))(_]+]+",
".@.:<))))))))))[}@.@",
".@.|'))))))))))!1@.@",
"@2@3))))))))))))42@2",
"+]+5))))))))))))6]+]",
"+7+5))))))))))))67+7",
"+]+3))))))))))))4]+]",
"777|'))))))))))!8777",
"]9]0a))))))))))~b9]9",
"7]7]c/))))))))(d7]7]",
"9@9@9e,'))))!~f99@9@",
"9]9]9]0g%&*hi}]99]9]",
"22222222222222222222",
"97979797979797799797"};
