/* XPM */
static char * C:\Users\crime\Shared\macos\metacity_1\close_focused_pressed_xpm[] = {
"20 18 60 1",
" 	c None",
".	c #F0F0EF",
"+	c #F0F0F0",
"@	c #EFF0F0",
"#	c #EEE7E7",
"$	c #E3B2B4",
"%	c #DB7B7E",
"&	c #D64C54",
"*	c #D74E56",
"=	c #DB7C7F",
"-	c #E3B4B5",
";	c #EDE8E8",
">	c #E8CDCC",
",	c #D74E55",
"'	c #D62A37",
")	c #D75359",
"!	c #E9CFCE",
"~	c #EFF0EF",
"{	c #E7CDCD",
"]	c #D5333E",
"^	c #D62A38",
"/	c #D63640",
"(	c #E8CFCE",
"_	c #EDE7E7",
":	c #D64C53",
"<	c #CE2936",
"[	c #C82835",
"}	c #C72835",
"|	c #CF2A37",
"1	c #D75258",
"2	c #EEE8E7",
"3	c #E2B2B3",
"4	c #A1222E",
"5	c #C42835",
"6	c #C32734",
"7	c #E4B5B5",
"8	c #F0EFEF",
"9	c #DB777B",
"0	c #DB7D80",
"a	c #D74950",
"b	c #EFEFF0",
"c	c #D74951",
"d	c #DA787B",
"e	c #E2B1B3",
"f	c #C92835",
"g	c #E2B3B6",
"h	c #EFEFEF",
"i	c #EDE6E6",
"j	c #D75056",
"k	c #CE2A37",
"l	c #EDE9E8",
"m	c #E8CBCD",
"n	c #E7CDCF",
"o	c #E8CCCD",
"p	c #D8535A",
"q	c #E8CECF",
"r	c #DB797D",
"s	c #D74B52",
"t	c #D74C53",
"u	c #EDE8E7",
".+.+.+.+.+.+.++..+.+",
"++++++++++++++++++++",
"+@+@+@#$%&*=-;@++@+@",
".....>,'''''')!.....",
"~+~+{]'^'^'^'^/(~+~+",
".@._:^<['^'^}|^12@.@",
".@.3'^}45^'64[^'7@.@",
"@8@9^'^645645''^08@8",
"+~+a^'^'6445^''^1~+~",
"+b+c^^^^6445^^^^1b+b",
"+~+d^'^645645''^0~+~",
"bbbe^^}45^^64f^^gbbb",
"~h~ij'k[''''[|')lh~h",
"b~b~m]^'^'^'^'/nb~b~",
"h@h@ho*^'^'^'pqhh@h@",
"h~h~h~i3rst%$u~hh~h~",
"88888888888888888888",
"hbhbhbhbhbhbhbbhhbhb"};
