/* XPM */
static char * C:\Users\crime\Shared\macos\metacity_1\close_focused_normal_xpm[] = {
"20 18 49 1",
" 	c None",
".	c #F0F0EF",
"+	c #F0F0F0",
"@	c #EFF0F0",
"#	c #EDE7E7",
"$	c #E3B2B4",
"%	c #E07C7F",
"&	c #E1545B",
"*	c #E0545B",
"=	c #E07D81",
"-	c #E3B4B5",
";	c #EEE8E8",
">	c #E8CDCC",
",	c #E0565B",
"'	c #EE4C52",
")	c #F25157",
"!	c #EE4B52",
"~	c #DF595F",
"{	c #E8CECE",
"]	c #EFF0EF",
"^	c #E8CCCD",
"/	c #E4434C",
"(	c #E3454E",
"_	c #E8CECF",
":	c #EEE7E6",
"<	c #E0545A",
"[	c #E0585E",
"}	c #EDE8E7",
"|	c #E3B1B2",
"1	c #F0EFEF",
"2	c #E07A7E",
"3	c #E07F82",
"4	c #E15159",
"5	c #E1595F",
"6	c #EFEFF0",
"7	c #E2B1B3",
"8	c #E2B3B6",
"9	c #EFEFEF",
"0	c #EDE7E6",
"a	c #E0565D",
"b	c #EDE9E8",
"c	c #E8CCCC",
"d	c #E7CECE",
"e	c #E7CCCC",
"f	c #E0565C",
"g	c #E7CECF",
"h	c #E3B2B3",
"i	c #E07C80",
"j	c #E3B4B4",
".+.+.+.+.+.+.++..+.+",
"++++++++++++++++++++",
"+@+@+#$%&*=-;@@++@+@",
"....>,'))))!~{......",
"]+]^/))))))))(_]]+]+",
".@:<))))))))))[}.@.@",
".@|'))))))))))!-.@.@",
"@12))))))))))))3@1@1",
"+]4))))))))))))5+]+]",
"+64))))))))))))5+6+6",
"+]2))))))))))))3+]+]",
"667'))))))))))!86666",
"]90a))))))))))~b]9]9",
"6]6c/))))))))(d66]6]",
"9@9@ef'))))!~g@99@9@",
"9]9]90h%&*ij#]]99]9]",
"11111111111111111111",
"96969696969696699696"};
