/* XPM */
static char * C:\Users\crime\Shared\macos\metacity_1\close_focused_pressed_xpm[] = {
"20 18 59 1",
" 	c None",
".	c #F0F0EF",
"+	c #F0F0F0",
"@	c #EFF0F0",
"#	c #EDE7E7",
"$	c #E3B2B4",
"%	c #DB7B7E",
"&	c #D64C54",
"*	c #D74E56",
"=	c #DB7C7F",
"-	c #E2B4B5",
";	c #EEE8E8",
">	c #E8CDCC",
",	c #D74E55",
"'	c #D62A37",
")	c #D75359",
"!	c #E9CFCE",
"~	c #EFF0EF",
"{	c #E8CDCD",
"]	c #D5333E",
"^	c #D62A38",
"/	c #D63640",
"(	c #E9CFCF",
"_	c #EEE7E6",
":	c #CE2936",
"<	c #C82835",
"[	c #C72835",
"}	c #CF2A37",
"|	c #D75258",
"1	c #EEE8E7",
"2	c #E3B2B3",
"3	c #A1222E",
"4	c #C42835",
"5	c #C32734",
"6	c #E4B5B5",
"7	c #F0EFEF",
"8	c #DA787B",
"9	c #DB7D80",
"0	c #D84951",
"a	c #EFEFF0",
"b	c #DB787B",
"c	c #E2B1B3",
"d	c #C92835",
"e	c #E2B3B6",
"f	c #EFEFEF",
"g	c #EDE7E6",
"h	c #D75056",
"i	c #CE2A37",
"j	c #EDE9E8",
"k	c #E8CCCC",
"l	c #E7CECE",
"m	c #E8CBCC",
"n	c #D85359",
"o	c #E8CECF",
"p	c #DB7A7D",
"q	c #D74B52",
"r	c #D74D53",
"s	c #DB7A7E",
"t	c #E3B3B4",
".+.+.+.+.+.+.++..+.+",
"++++++++++++++++++++",
"+@+@+#$%&*=-;@@++@+@",
"....>,'''''')!......",
"~+~{]^'^'^'^'/(~~+~+",
".@_&':<^'^'[}^|1.@.@",
".@2^'[34'^53<^^6.@.@",
"@78'^'534534^''9@7@7",
"+~0'^'^5334'^''|+~+~",
"+a0^^^^5334^^^^|+a+a",
"+~b'^'534534^''9+~+~",
"aac^^[34^^53d^^eaaaa",
"~fgh'i<''''<}')j~f~f",
"a~ak]'^'^'^'^/laa~a~",
"f@f@m*'^'^'^no@ff@f@",
"f~f~fgcpqrst#~~ff~f~",
"77777777777777777777",
"fafafafafafafaaffafa"};
