/* XPM */
static char * C:\Users\crime\Shared\macos\metacity_1\close_focused_pressed_xpm[] = {
"20 18 46 1",
" 	c None",
".	c #F5F5F5",
"+	c #F3ECEC",
"@	c #E6B6B7",
"#	c #DC7D81",
"$	c #D64E55",
"%	c #D75057",
"&	c #DC7E82",
"*	c #E6B7B9",
"=	c #F3EDED",
"-	c #ECD1D1",
";	c #D75056",
">	c #D62B38",
",	c #D8555B",
"'	c #ECD3D4",
")	c #ECD1D2",
"!	c #D6343F",
"~	c #D63741",
"{	c #CE2936",
"]	c #C82835",
"^	c #C72835",
"/	c #CF2A37",
"(	c #D85359",
"_	c #A1222E",
":	c #C42835",
"<	c #C32734",
"[	c #E7B9BA",
"}	c #DC7A7E",
"|	c #DC7F82",
"1	c #D84A52",
"2	c #DC7F83",
"3	c #E6B5B6",
"4	c #C92835",
"5	c #E6B8B9",
"6	c #D75158",
"7	c #CE2A37",
"8	c #F3EDEE",
"9	c #ECD0D1",
"0	c #ECD2D3",
"a	c #D9555B",
"b	c #EDD2D3",
"c	c #F2ECEC",
"d	c #DD7C80",
"e	c #D74C53",
"f	c #D74E55",
"g	c #E6B7B8",
"....................",
"....................",
".....+@#$%&*=.......",
"....-;>>>>>>,'......",
"...)!>>>>>>>>~'.....",
"..+$>{]>>>>^/>(=....",
"..@>>^_:>><_]>>[....",
"..}>>><_:<_:>>>|....",
"..1>>>><__:>>>>(....",
"..1>>>><__:>>>>(....",
"..}>>><_:<_:>>>2....",
"..3>>^_:>><_4>>5....",
"..+6>7]>>>>]/>,8....",
"...9!>>>>>>>>~0.....",
"....9%>>>>>>ab......",
".....c@def#g=.......",
"....................",
"...................."};
