/* XPM */
static char * close_active_xpm[] = {
"20 18 36 1",
" 	c None",
".	c #FFFFFF",
"+	c #E3B2B4",
"@	c #E07C7F",
"#	c #E1545B",
"$	c #E0545B",
"%	c #E07D81",
"&	c #E4B4B5",
"*	c #E8CDCC",
"=	c #E0565B",
"-	c #EE4C52",
";	c #F25157",
">	c #EE4B52",
",	c #DF595F",
"'	c #E8CECE",
")	c #E8CCCC",
"!	c #E4434C",
"~	c #E3454E",
"{	c #E7CECE",
"]	c #E0545A",
"^	c #E0585E",
"/	c #E2B1B3",
"(	c #E3B4B5",
"_	c #E07A7D",
":	c #E07F82",
"<	c #E15159",
"[	c #E1595F",
"}	c #E2B3B6",
"|	c #E0575D",
"1	c #E8CBCD",
"2	c #E7CDCF",
"3	c #E7CDCD",
"4	c #E7CECF",
"5	c #E3B2B3",
"6	c #E07D80",
"7	c #E3B3B4",
"....................",
"....................",
".......+@#$%&.......",
".....*=-;;;;>,'.....",
"....)!;;;;;;;;~{....",
"....];;;;;;;;;;^....",
".../-;;;;;;;;;;>(...",
"..._;;;;;;;;;;;;:...",
"...<;;;;;;;;;;;;[...",
"...<;;;;;;;;;;;;[...",
"..._;;;;;;;;;;;;:...",
".../-;;;;;;;;;;>}...",
"....|;;;;;;;;;;,....",
"....1!;;;;;;;;~2....",
".....3=-;;;;>,4.....",
".......5@#$67.......",
"....................",
"...................."};
