/* XPM */
static char * C:\Users\crime\Shared\macos\metacity_1\close_focused_normal_xpm[] = {
"20 18 32 1",
" 	c None",
".	c #F5F5F5",
"+	c #F2ECEC",
"@	c #E6B6B8",
"#	c #E17F82",
"$	c #E1555C",
"%	c #E0555C",
"&	c #E17F83",
"*	c #E6B7B9",
"=	c #F3EDED",
"-	c #ECD1D1",
";	c #E1575D",
">	c #EE4C53",
",	c #F25257",
"'	c #EE4B53",
")	c #E05A61",
"!	c #ECD2D3",
"~	c #ECD0D1",
"{	c #E4444C",
"]	c #E3464E",
"^	c #F3ECEC",
"/	c #E0555B",
"(	c #E1595F",
"_	c #F2EDED",
":	c #E6B5B6",
"<	c #E6B8B9",
"[	c #E17D80",
"}	c #E18184",
"|	c #E1525A",
"1	c #E25A60",
"2	c #E1585F",
"3	c #F3EDEE",
"....................",
"....................",
".....+@#$%&*=.......",
"....-;>,,,,')!......",
"...~{,,,,,,,,]!.....",
"..^/,,,,,,,,,,(_....",
"..:>,,,,,,,,,,'<....",
"..[,,,,,,,,,,,,}....",
"..|,,,,,,,,,,,,1....",
"..|,,,,,,,,,,,,1....",
"..[,,,,,,,,,,,,}....",
"..:>,,,,,,,,,,'<....",
"..+2,,,,,,,,,,)3....",
"...~{,,,,,,,,]!.....",
"....-;>,,,,')!......",
".....+@#$%&*=.......",
"....................",
"...................."};
