/* XPM */
static char * C:\Users\crime\Shared\macos\metacity_1\close_focused_active_xpm[] = {
"20 18 43 1",
" 	c None",
".	c #F5F5F5",
"+	c #F2EAEA",
"@	c #E5B1B3",
"#	c #E1777B",
"$	c #E14851",
"%	c #E1787C",
"&	c #E5B2B4",
"*	c #F2EBEB",
"=	c #EACBCC",
"-	c #E15056",
";	c #EF4B52",
">	c #F25056",
",	c #E05259",
"'	c #EBCDCE",
")	c #E53F49",
"!	c #E5404B",
"~	c #EBCECF",
"{	c #E64950",
"]	c #DC424B",
"^	c #DB424A",
"/	c #E74950",
"(	c #E1535B",
"_	c #A21F2C",
":	c #D63F48",
"<	c #D53E47",
"[	c #DD434B",
"}	c #EE4A52",
"|	c #E6B4B6",
"1	c #D84048",
"2	c #E17C7F",
"3	c #E24851",
"4	c #E15158",
"5	c #E17D80",
"6	c #E6B2B4",
"7	c #EE4A51",
"8	c #E6B6B7",
"9	c #E0555B",
"0	c #F3ECEC",
"a	c #E4404A",
"b	c #EBCFD0",
"c	c #E07B7E",
"d	c #F2ECEC",
"....................",
"....................",
".....+@#$$%&*.......",
"....=-;>>>>;,'......",
"...=)>>>>>>>>!~.....",
"..+->{]>>>>^/>(*....",
"..@;>]_:>><_[>}|....",
"..#>>>:_:<_1>>>2....",
"..3>>>>:__1>>>>-....",
"..$>>>><__:>>>>4....",
"..%>>><_1:_:>>>5....",
"..6;>^_1>>:_[>78....",
"..*,>/[>>>>[/>90....",
"...'!>>>>>>>>ab.....",
"....~,}>>>>79b......",
".....*|c--58d.......",
"....................",
"...................."};
