/* XPM */
static char * close_active_xpm[] = {
"24 24 15 1",
" 	c None",
".	c #DF3540",
"+	c #E23944",
"@	c #DF3541",
"#	c #E23A44",
"$	c #F04D54",
"%	c #F25056",
"&	c #E13A44",
"*	c #E8414A",
"=	c #E7414A",
"-	c #F04E54",
";	c #DF3640",
">	c #E33A45",
",	c #E03541",
"'	c #E23A43",
"                        ",
"                        ",
"                        ",
"                        ",
"                        ",
"          .++@          ",
"        #$%%%%$&        ",
"       *%%%%%%%%=       ",
"      #%%%%%%%%%%#      ",
"      $%%%%%%%%%%-      ",
"     .%%%%%%%%%%%%;     ",
"     >%%%%%%%%%%%%#     ",
"     #%%%%%%%%%%%%#     ",
"     ,%%%%%%%%%%%%;     ",
"      $%%%%%%%%%%$      ",
"      &%%%%%%%%%%'      ",
"       =%%%%%%%%=       ",
"        #-%%%%$'        ",
"          @##@          ",
"                        ",
"                        ",
"                        ",
"                        ",
"                        "};
