/* XPM */
static char * close_prelight_xpm[] = {
"20 18 46 1",
" 	c None",
".	c #FFFFFF",
"+	c #E2AEAF",
"@	c #E07579",
"#	c #E04850",
"$	c #E14850",
"%	c #E0767A",
"&	c #E2AFB0",
"*	c #E7C7C7",
"=	c #E14F55",
"-	c #EF4B52",
";	c #F25056",
">	c #E05158",
",	c #E7C9C9",
"'	c #E6C7C7",
")	c #E53F49",
"!	c #E5404A",
"~	c #E7CACA",
"{	c #E64950",
"]	c #DC424B",
"^	c #DB424A",
"/	c #E74950",
"(	c #E15259",
"_	c #A21F2C",
":	c #D63F48",
"<	c #D53E47",
"[	c #DD434B",
"}	c #EE4A52",
"|	c #E3B1B1",
"1	c #E07478",
"2	c #D84048",
"3	c #E07A7D",
"4	c #E15057",
"5	c #E07679",
"6	c #E07A7E",
"7	c #E3AEB0",
"8	c #EE4A51",
"9	c #E2B1B3",
"0	c #E0545A",
"a	c #E7C8CA",
"b	c #E43F49",
"c	c #E6CACC",
"d	c #E05058",
"e	c #E6CBCC",
"f	c #DF787B",
"g	c #E14E55",
"....................",
"....................",
".......+@#$%&.......",
".....*=-;;;;->,.....",
"....');;;;;;;;!~....",
"....=;{];;;;^/;(....",
"...+-;]_:;;<_[;}|...",
"...1;;;:_:<_2;;;3...",
"...$;;;;:__2;;;;=...",
"...#;;;;<__:;;;;4...",
"...5;;;<_2:_:;;;6...",
"...7-;^_2;;:_[;89...",
"....>;/[;;;;[/;0....",
"....a!;;;;;;;;bc....",
".....~d};;;;80e.....",
".......|f=g39.......",
"....................",
"...................."};
