/* XPM */
static char *close_pressed[] = {
/* columns rows colors chars-per-pixel */
"22 20 31 1 ",
"  c #A21D2B",
". c #A51E2C",
"X c #A91F2D",
"o c #AB1F2D",
"O c #AC1F2D",
"+ c #BB212F",
"@ c #BB2230",
"# c #BC2230",
"$ c #BD2230",
"% c #BF2331",
"& c #C02331",
"* c #C12331",
"= c #C32331",
"- c #C42331",
"; c #C22432",
": c #C72432",
"> c #C82432",
", c #D02634",
"< c #D12634",
"1 c #D22634",
"2 c #D32634",
"3 c #D32735",
"4 c #D42634",
"5 c #D42635",
"6 c #D52635",
"7 c #D42735",
"8 c #D52735",
"9 c #D62735",
"0 c #D72735",
"q c #D52736",
"w c None",
/* pixels */
"wwwwwwwwwwwwwwwwwwwwww",
"wwwwwwwwwwwwwwwwwwwwww",
"wwwwwwww9,99wwwwwwwwww",
"wwwwww99999999wwwwwwww",
"wwwww9999999900wwwwwww",
"wwww99,,9999,,00wwwwww",
"www99,==,09,$:,00wwwww",
"www99,@O;9,@o;900wwwww",
"wwqq00,@o$$o;q000wwwww",
"ww7q000,@ .*,000qqwwww",
"ww00000,@ .*,00900wwww",
"wwq000,$o$@X*,090wwwww",
"www00,@X%q,@O-000wwwww",
"www00,;;q00,$>,00wwwww",
"wwww0q,,0000,,00wwwwww",
"wwwww0000q00000wwwwwww",
"wwwwww00099000wwwwwwww",
"wwwwwwww00,0wwwwwwwwww",
"wwwwwwwwwwwwwwwwwwwwww",
"wwwwwwwwwwwwwwwwwwwwww"
};
