/* XPM */
static char * close_pressed_xpm[] = {
"20 18 47 1",
" 	c None",
".	c #FFFFFF",
"+	c #E3B2B4",
"@	c #DB7B7E",
"#	c #D64C54",
"$	c #D74E56",
"%	c #DB7C7F",
"&	c #E3B4B5",
"*	c #E8CDCC",
"=	c #D74E55",
"-	c #D62A37",
";	c #D75359",
">	c #E9CFCE",
",	c #E7CDCD",
"'	c #D5333E",
")	c #D62A38",
"!	c #D63640",
"~	c #E8CFCE",
"{	c #D64C53",
"]	c #CE2936",
"^	c #C82835",
"/	c #C72835",
"(	c #CF2A37",
"_	c #D75258",
":	c #E2B2B3",
"<	c #A1222E",
"[	c #C42835",
"}	c #C32734",
"|	c #E4B5B5",
"1	c #DB777B",
"2	c #DB7D80",
"3	c #D74950",
"4	c #D74951",
"5	c #DA787B",
"6	c #E2B1B3",
"7	c #C92835",
"8	c #E2B3B6",
"9	c #D75056",
"0	c #CE2A37",
"a	c #E8CBCD",
"b	c #E7CDCF",
"c	c #E8CCCD",
"d	c #D8535A",
"e	c #E8CECF",
"f	c #DB797D",
"g	c #D74B52",
"h	c #D74C53",
"....................",
"....................",
".......+@#$%&.......",
".....*=------;>.....",
"....,'-)-)-)-)!~....",
"....{)]^-)-)/()_....",
"...:-)/<[)-}<^)-|...",
"...1)-)}<[}<[--)2...",
"...3)-)-}<<[)--)_...",
"...4))))}<<[))))_...",
"...5)-)}<[}<[--)2...",
"...6))/<[))}<7))8...",
"....9-0^----^(-;....",
"....a')-)-)-)-!b....",
".....c$)-)-)-de.....",
".......:fgh@+.......",
"....................",
"...................."};
