/* XPM */
static char * C:\Users\crime\Shared\macos\metacity_1\minimize_focused_normal_xpm[] = {
"20 18 28 1",
" 	c None",
".	c #F5F5F5",
"+	c #F3EFEC",
"@	c #E9D1B5",
"#	c #E5BA7A",
"$	c #E6B34B",
"%	c #E6B24B",
"&	c #E6BC7B",
"*	c #E9D0B5",
"=	c #F4F0ED",
"-	c #EDDFD1",
";	c #E5B14C",
">	c #F6C033",
",	c #FAC639",
"'	c #E5B24F",
")	c #EEE0D1",
"!	c #EAB231",
"~	c #FAC539",
"{	c #E6B14C",
"]	c #E6B24E",
"^	c #E8D1B6",
"/	c #E6BA7A",
"(	c #E5BB7B",
"_	c #E7B149",
":	c #E7B34C",
"<	c #E6B24F",
"[	c #F3F0ED",
"}	c #E8D0B5",
"....................",
"....................",
".....+@#$%&*=.......",
"....-;>,,,,>')......",
"...-!~,,,,,,~!).....",
"..+{~,,,,,,,,~]+....",
"..*>,,,,,,,,,,>^....",
"../,,,,,,,,,,,,(....",
".._,,,,,,,,,,,,:....",
".._,,,,,,,,,,,,:....",
"../,,,,,,,,,,,,(....",
"..*>,,,,,,,,,,>^....",
"..+<~,,,,,,,,~'[....",
"...-!~,,,,,,~!).....",
"....-;>,,,,>')......",
".....+}#$%&*=.......",
"....................",
"...................."};
