/* XPM */
static char * C:\Users\crime\Shared\macos\metacity_1\minimize_focused_pressed_xpm[] = {
"20 18 42 1",
" 	c None",
".	c #F0F0EF",
"+	c #F0F0F0",
"@	c #EFF0F0",
"#	c #EFEDE7",
"$	c #F5DCB5",
"%	c #F8CF7E",
"&	c #F9C754",
"*	c #FAC856",
"=	c #F5DDB5",
"-	c #F1EDE8",
";	c #F2E4CD",
">	c #FAC857",
",	c #FAC638",
"'	c #F9C958",
")	c #EFF0EF",
"!	c #F2E4CE",
"~	c #FAC63F",
"{	c #F1EDE6",
"]	c #F9C856",
"^	c #F9C857",
"/	c #F1EDE7",
"(	c #F5DCB3",
"_	c #F5DDB4",
":	c #F0EFEF",
"<	c #F9C853",
"[	c #DDA62F",
"}	c #C18826",
"|	c #DEA62F",
"1	c #EFEFF0",
"2	c #DDA52F",
"3	c #F4DBB4",
"4	c #F4DBB5",
"5	c #EFEFEF",
"6	c #F0EDE7",
"7	c #F2E3CD",
"8	c #F5DBB3",
"9	c #F8CF7D",
"0	c #FAC854",
"a	c #F8CE7D",
"b	c #F4DCB3",
"c	c #EFECE7",
".+.+.+.+.+.+.++..+.+",
"++++++++++++++++++++",
"+@+@+#$%&*%=-@@++@+@",
"....;>,,,,,,';......",
")+)!~,,,,,,,,~!))+)+",
".@{],,,,,,,,,,^/.@.@",
".@(,,,,,,,,,,,,_.@.@",
"@:%,,,,,,,,,,,,%@:@:",
"+)<,[}}}}}}}}|,*+)+)",
"+1<,2}}}}}}}}[,*+1+1",
"+)%,,,,,,,,,,,,%+)+)",
"113,,,,,,,,,,,,41111",
")56^,,,,,,,,,,'6)5)5",
"1)1;~,,,,,,,,~;11)1)",
"5@5@7],,,,,,'!@55@5@",
"5)5)5689<0abc))55)5)",
"::::::::::::::::::::",
"51515151515151155151"};
