/* XPM */
static char *hide_pressed[] = {
/* columns rows colors chars-per-pixel */
"22 20 20 1 ",
"  c #C28822",
". c #C38923",
"X c #CF9627",
"o c #CF9727",
"O c #D59D29",
"+ c #EAB431",
"@ c #EAB531",
"# c #F0BA32",
"$ c #F1BC33",
"% c #F3BE34",
"& c #F3BF34",
"* c #F4BF34",
"= c #F7C335",
"- c #F8C435",
"; c #FAC436",
": c #FAC536",
"> c #FBC536",
", c #FAC636",
"< c #FBC736",
"1 c None",
/* pixels */
"1111111111111111111111",
"1111111111111111111111",
"11111111,;<,1111111111",
"111111,,,,,;,,11111111",
"11111,,,,,,,,,,1111111",
"1111,,,,,,,,,,,,111111",
"111,,,,,,,,,,,,,<11111",
"111,,,,<<,<<<<,,,11111",
"11,,-$$$$$$$$$=;;11111",
"11,,@o........O#<<1111",
"11,,@o........O#<<1111",
"11,,,$$$$$$$$$$=,11111",
"111,,,<<<<<,<<<,,11111",
"111,,,,,,,,,,,,,,11111",
"1111,,,,,,,,,,,,111111",
"11111,,,,,,,,,,1111111",
"111111,,,,,,,;11111111",
"11111111,,,;1111111111",
"1111111111111111111111",
"1111111111111111111111"
};
