/* XPM */
static char * C:\Users\crime\Shared\macos\metacity_1\minimize_focused_active_xpm[] = {
"20 18 57 1",
" 	c None",
".	c #F0F0EF",
"+	c #F0F0F0",
"@	c #EFF0F0",
"#	c #EEEAE5",
"$	c #E5CBAD",
"%	c #E4B76F",
"&	c #E6B039",
"*	c #E5CAAD",
"=	c #EDE9E5",
"-	c #E9D9C6",
";	c #E7B143",
">	c #F6C031",
",	c #FAC536",
"'	c #E7B043",
")	c #E9D9C7",
"!	c #EFF0EF",
"~	c #E8D9C6",
"{	c #EBB328",
"]	c #E8D9C7",
"^	c #E7B145",
"/	c #F0EFEF",
"(	c #E5B770",
"_	c #E5B872",
":	c #E6B03A",
"<	c #DBA32B",
"[	c #C08522",
"}	c #DCA42B",
"|	c #E7B13F",
"1	c #EFEFF0",
"2	c #E7B03D",
"3	c #DCA52C",
"4	c #C28723",
"5	c #DDA52C",
"6	c #E6B03F",
"7	c #E4B771",
"8	c #E6B873",
"9	c #E5CBAF",
"0	c #EFEFEF",
"a	c #EEE9E5",
"b	c #E6B045",
"c	c #E7B047",
"d	c #EDEAE5",
"e	c #E8D8C9",
"f	c #EBB32A",
"g	c #E8D9CA",
"h	c #E9D9C9",
"i	c #E7B147",
"j	c #E5B047",
"k	c #E8DACA",
"l	c #EDEAE6",
"m	c #E5CBAE",
"n	c #E5B874",
"o	c #E6B041",
"p	c #E4B874",
"q	c #E4CBAF",
"r	c #EDEBE6",
".+.+.+.+.+.+.++..+.+",
"++++++++++++++++++++",
"+@+@+@#$%&&%*=@++@+@",
".....-;>,,,,>').....",
"!+!+~{,,,,,,,,{]!+!+",
".@.=',,,,,,,,,,^#@.@",
".@.$>,,,,,,,,,,>$@.@",
"@/@(,,,,,,,,,,,,_/@/",
"+!+:,<[[[[[[[[},|!+!",
"+1+2,3444444445,61+1",
"+!+7,,,,,,,,,,,,8!+!",
"1119>,,,,,,,,,,>9111",
"!0!ab,,,,,,,,,,cd0!0",
"1!1!ef,,,,,,,,fg1!1!",
"0@0@0hi>,,,,>jk00@0@",
"0!0!0!lmnoopqr!00!0!",
"////////////////////",
"01010101010101100101"};
