/* XPM */
static char * hide_active_xpm[] = {
"20 18 34 1",
" 	c None",
".	c #FFFFFF",
"+	c #E5CEB2",
"@	c #E4B977",
"#	c #E6B249",
"$	c #E6B149",
"%	c #E5BA78",
"&	c #E6CDB2",
"*	c #EADBCC",
"=	c #E5B14A",
"-	c #F6C033",
";	c #FAC638",
">	c #E5B14D",
",	c #EADCCC",
"'	c #E9DCCC",
")	c #EAB231",
"!	c #FAC538",
"~	c #E6B14A",
"{	c #E6B14C",
"]	c #E5CDB1",
"^	c #E6CEB2",
"/	c #E5B977",
"(	c #E4B978",
"_	c #E7B147",
":	c #E7B34B",
"<	c #E5CCB1",
"[	c #E5CDB2",
"}	c #E6B14D",
"|	c #E9DBCC",
"1	c #EAB230",
"2	c #E9DBCD",
"3	c #E5B14E",
"4	c #E9DCCD",
"5	c #E4CDB0",
"....................",
"....................",
".......+@#$%&.......",
".....*=-;;;;->,.....",
"....')!;;;;;;!)'....",
"....~!;;;;;;;;!{....",
"...]-;;;;;;;;;;-^...",
".../;;;;;;;;;;;;(...",
"..._;;;;;;;;;;;;:...",
"..._;;;;;;;;;;;;:...",
".../;;;;;;;;;;;;(...",
"...<-;;;;;;;;;;-[...",
"....}!;;;;;;;;!>....",
"....|1!;;;;;;!12....",
".....|=-;;;;-34.....",
".......5@#$%<.......",
"....................",
"...................."};
