/* XPM */
static char * hide_prelight_xpm[] = {
"20 18 45 1",
" 	c None",
".	c #FFFFFF",
"+	c #E5CBAD",
"@	c #E4B76F",
"#	c #E6B039",
"$	c #E5CAAD",
"%	c #E9D9C6",
"&	c #E7B143",
"*	c #F6C031",
"=	c #FAC536",
"-	c #E7B043",
";	c #E9D9C7",
">	c #E8D9C6",
",	c #EBB328",
"'	c #E8D9C7",
")	c #E7B145",
"!	c #E5B770",
"~	c #E5B872",
"{	c #E6B03A",
"]	c #DBA32B",
"^	c #C08522",
"/	c #DCA42B",
"(	c #E7B13F",
"_	c #E7B03D",
":	c #DCA52C",
"<	c #C28723",
"[	c #DDA52C",
"}	c #E6B03F",
"|	c #E4B771",
"1	c #E6B873",
"2	c #E5CBAF",
"3	c #E6B045",
"4	c #E7B047",
"5	c #E8D8C9",
"6	c #EBB32A",
"7	c #E8D9CA",
"8	c #E9D9C9",
"9	c #E7B147",
"0	c #E5B047",
"a	c #E8DACA",
"b	c #E5CBAE",
"c	c #E5B874",
"d	c #E6B041",
"e	c #E4B874",
"f	c #E4CBAF",
"....................",
"....................",
".......+@##@$.......",
".....%&*====*-;.....",
"....>,========,'....",
"....-==========)....",
"...+*==========*+...",
"...!============~...",
"...{=]^^^^^^^^/=(...",
"..._=:<<<<<<<<[=}...",
"...|============1...",
"...2*==========*2...",
"....3==========4....",
"....56========67....",
".....89*====*0a.....",
".......bcddef.......",
"....................",
"...................."};
