/* XPM */
static char * C:\Users\crime\Shared\macos\metacity_1\minimize_focused_pressed_xpm[] = {
"20 18 43 1",
" 	c None",
".	c #F0F0EF",
"+	c #F0F0F0",
"@	c #EFF0F0",
"#	c #F0EDE7",
"$	c #F4DCB5",
"%	c #F8CF7E",
"&	c #F9C754",
"*	c #FAC856",
"=	c #F5DDB5",
"-	c #F0EDE8",
";	c #F2E4CD",
">	c #FAC857",
",	c #FAC638",
"'	c #F9C958",
")	c #EFF0EF",
"!	c #FAC63F",
"~	c #F9C856",
"{	c #F9C857",
"]	c #F1EDE7",
"^	c #F4DCB4",
"/	c #F5DDB4",
"(	c #F0EFEF",
"_	c #F8CE7D",
":	c #F9C853",
"<	c #DDA62F",
"[	c #C18826",
"}	c #DEA62F",
"|	c #EFEFF0",
"1	c #DDA52F",
"2	c #F8CF7D",
"3	c #F4DBB4",
"4	c #F4DBB5",
"5	c #EFEFEF",
"6	c #F0ECE7",
"7	c #F2E3CD",
"8	c #F2E3CE",
"9	c #F9C959",
"0	c #F2E4CE",
"a	c #F5DCB3",
"b	c #FAC854",
"c	c #F4DBB3",
"d	c #EFEDE7",
".+.+.+.+.+.+.++..+.+",
"++++++++++++++++++++",
"+@+@+@#$%&*%=-@++@+@",
".....;>,,,,,,';.....",
")+)+;!,,,,,,,,!;)+)+",
".@.#~,,,,,,,,,,{]@.@",
".@.^,,,,,,,,,,,,/@.@",
"@(@_,,,,,,,,,,,,%(@(",
"+)+:,<[[[[[[[[},*)+)",
"+|+:,1[[[[[[[[<,*|+|",
"+)+2,,,,,,,,,,,,%)+)",
"|||3,,,,,,,,,,,,4|||",
")5)6{,,,,,,,,,,'#5)5",
"|)|)7!,,,,,,,,!8|)|)",
"5@5@5;~,,,,,,9055@5@",
"5)5)5)#a_:b2cd)55)5)",
"((((((((((((((((((((",
"5|5|5|5|5|5|5||55|5|"};
