/* XPM */
static char *hide_active[] = {
/* columns rows colors chars-per-pixel */
"22 20 35 1 ",
"  c #E1A718",
". c #E1A719",
"X c #E2A719",
"o c #E5AB1C",
"O c #E4AB1D",
"+ c #E5AB1D",
"@ c #E4AC1D",
"# c #E6AD1E",
"$ c #E7AD1E",
"% c #E9AF20",
"& c #E9AF21",
"* c #E8B021",
"= c #E9B021",
"- c #E9B022",
"; c #EAB123",
": c #ECB325",
"> c #ECB425",
", c #EDB526",
"< c #EFB829",
"1 c #F0B92A",
"2 c #F1BA2B",
"3 c #F2BB2B",
"4 c #F2BC2D",
"5 c #F2BD2D",
"6 c #F3BD2D",
"7 c #F3BD2E",
"8 c #F3BE2E",
"9 c #F4BE2F",
"0 c #F6C032",
"q c #F9C434",
"w c #F9C535",
"e c #FAC535",
"r c #FAC636",
"t c #FBC737",
"y c None",
/* pixels */
"yyyyyyyyyyyyyyyyyyyyyy",
"yyyyyyyyyyyyyyyyyyyyyy",
"yyyyyyyy.##.yyyyyyyyyy",
"yyyyyy-444443#yyyyyyyy",
"yyyyy:9wttttw4;yyyyyyy",
"yyyy>0twwtwtww9-yyyyyy",
"yyy&9twttttwwtt4#yyyyy",
"yyy3wwwttwwttwww>yyyyy",
"yy.4tttwwttwttrt<yyyyy",
"yy#0ttwtwttwwtrt<Oyyyy",
"yy#4twwttwttrrrt3#yyyy",
"yy.4tttwwttwrrrt<yyyyy",
"yyy3wwwttwwtrrrr>yyyyy",
"yyy&0wtwwttwrrt<#yyyyy",
"yyyy:0tttwwtwt0*yyyyyy",
"yyyyy:0wttttw4-yyyyyyy",
"yyyyyy-34444<#yyyyyyyy",
"yyyyyyyy.##.yyyyyyyyyy",
"yyyyyyyyyyyyyyyyyyyyyy",
"yyyyyyyyyyyyyyyyyyyyyy"
};
