/* XPM */
static char * hide_active_xpm[] = {
"24 24 18 1",
" 	c None",
".	c #E5AB1E",
"+	c #E9AF21",
"@	c #E8AF21",
"#	c #E4AC1E",
"$	c #E9B021",
"%	c #F8C334",
"&	c #FAC536",
"*	c #E8B021",
"=	c #EEB729",
"-	c #E9B121",
";	c #F8C333",
">	c #E5AB1D",
",	c #E6AC1D",
"'	c #E9B122",
")	c #E6AB1D",
"!	c #F7C233",
"~	c #EEB628",
"                        ",
"                        ",
"                        ",
"                        ",
"                        ",
"          .+@#          ",
"        $%&&&&%*        ",
"       =&&&&&&&&=       ",
"      $&&&&&&&&&&-      ",
"      %&&&&&&&&&&;      ",
"     >&&&&&&&&&&&&,     ",
"     '&&&&&&&&&&&&*     ",
"     $&&&&&&&&&&&&$     ",
"     )&&&&&&&&&&&&,     ",
"      %&&&&&&&&&&!      ",
"      *&&&&&&&&&&$      ",
"       =&&&&&&&&~       ",
"        $;&&&&!$        ",
"          ,$$,          ",
"                        ",
"                        ",
"                        ",
"                        ",
"                        "};
