/* XPM */
static char * C:\Users\crime\Shared\macos\metacity_1\minimize_focused_normal_xpm[] = {
"20 18 44 1",
" 	c None",
".	c #F0F0EF",
"+	c #F0F0F0",
"@	c #EFF0F0",
"#	c #EDEBE7",
"$	c #E6CEB2",
"%	c #E4B977",
"&	c #E6B249",
"*	c #E6B149",
"=	c #E5BA78",
"-	c #E5CDB2",
";	c #EFEBE8",
">	c #EADBCC",
",	c #E5B14A",
"'	c #F6C033",
")	c #FAC638",
"!	c #E5B14D",
"~	c #EADCCC",
"{	c #EFF0EF",
"]	c #EAB230",
"^	c #FAC538",
"/	c #EAB231",
"(	c #EADCCD",
"_	c #EEEBE6",
":	c #E6B14B",
"<	c #E6B14C",
"[	c #E6CDB0",
"}	c #F0EFEF",
"|	c #E5B977",
"1	c #E4B978",
"2	c #E7B147",
"3	c #E7B34B",
"4	c #EFEFF0",
"5	c #E5CCB1",
"6	c #EFEFEF",
"7	c #E6B14D",
"8	c #E9DCCC",
"9	c #E9DACC",
"0	c #E5B14B",
"a	c #E9DCCD",
"b	c #EDEBE6",
"c	c #E4CCB0",
"d	c #E5CDB1",
"e	c #EEEAE7",
".+.+.+.+.+.+.++..+.+",
"++++++++++++++++++++",
"+@+@+#$%&*=-;@@++@+@",
"....>,'))))'!~......",
"{+{~]^))))))^/({{+{+",
".@_:^))))))))^<_.@.@",
".@['))))))))))'$.@.@",
"@}|))))))))))))1@}@}",
"+{2))))))))))))3+{+{",
"+42))))))))))))3+4+4",
"+{|))))))))))))1+{+{",
"445'))))))))))'-4444",
"{6#7^))))))))^!#{6{6",
"4{48/^))))))^]844{4{",
"6@6@90'))))'!a@66@6@",
"6{6{6bc%&*=de{{66{6{",
"}}}}}}}}}}}}}}}}}}}}",
"64646464646464466464"};
