/* XPM */
static char * C:\Users\crime\Shared\macos\metacity_1\minimize_focused_active_xpm[] = {
"20 18 50 1",
" 	c None",
".	c #F5F5F5",
"+	c #F3EFEA",
"@	c #E8CEB0",
"#	c #E5B871",
"$	c #E6B03A",
"%	c #E8CDB0",
"&	c #F2EEEA",
"*	c #EDDCCB",
"=	c #E7B245",
"-	c #F6C031",
";	c #FAC536",
">	c #E7B145",
",	c #EDDCCC",
"'	c #ECDCCB",
")	c #EBB328",
"!	c #ECDCCC",
"~	c #E7B147",
"{	c #F2EFEB",
"]	c #E8CEB1",
"^	c #E8CEB2",
"/	c #E6B972",
"(	c #E6B975",
"_	c #E7B03C",
":	c #DBA32B",
"<	c #C08522",
"[	c #DCA42B",
"}	c #E8B140",
"|	c #E8B13E",
"1	c #DCA52C",
"2	c #C28723",
"3	c #DDA52C",
"4	c #E7B040",
"5	c #E6B874",
"6	c #E7BA76",
"7	c #E9CFB2",
"8	c #E8CFB3",
"9	c #F3EFEB",
"0	c #E6B047",
"a	c #E7B149",
"b	c #ECDDCD",
"c	c #EBB32B",
"d	c #EDDECE",
"e	c #EDDDCE",
"f	c #E5B148",
"g	c #E8CEB3",
"h	c #E7B977",
"i	c #E7B043",
"j	c #E5B977",
"k	c #E7CFB4",
"....................",
"....................",
".....+@#$$#%&.......",
"....*=-;;;;->,......",
"...');;;;;;;;)!.....",
"..&>;;;;;;;;;;~{....",
"..]-;;;;;;;;;;-^....",
"../;;;;;;;;;;;;(....",
".._;:<<<<<<<<[;}....",
"..|;1222222223;4....",
"..5;;;;;;;;;;;;6....",
"..7-;;;;;;;;;;-8....",
"..90;;;;;;;;;;a{....",
"...bc;;;;;;;;cd.....",
"....ea-;;;;-fe......",
".....9ghiijk9.......",
"....................",
"...................."};
