/* XPM */
static char *hide_prelight[] = {
/* columns rows colors chars-per-pixel */
"22 20 65 1 ",
"  c #E0A618",
". c #E1A718",
"X c #E3A719",
"o c #E2A71A",
"O c #E2A81A",
"+ c #E5AA1C",
"@ c #E5AB1D",
"# c #E6AB1C",
"$ c #E5AC1D",
"% c #E6AC1D",
"& c #E5AC1E",
"* c #E6AD1F",
"= c #E7AD1F",
"- c #E7AE1F",
"; c #C18622",
": c #C18723",
"> c #C28723",
", c #C38823",
"< c #C48924",
"1 c #CE9527",
"2 c #CF9628",
"3 c #D49B28",
"4 c #D59C29",
"5 c #E7AE20",
"6 c #E9AF22",
"7 c #E9B022",
"8 c #E9B122",
"9 c #EAB122",
"0 c #EBB223",
"q c #ECB425",
"w c #ECB426",
"e c #ECB526",
"r c #EDB526",
"t c #F0B829",
"y c #F0B92A",
"u c #F1B92A",
"i c #F1BA2A",
"p c #F1BA2B",
"a c #F1BA2C",
"s c #F2BA2C",
"d c #F2BB2C",
"f c #F2BC2D",
"g c #F3BC2D",
"h c #F3BC2E",
"j c #F3BD2E",
"k c #F4BD2E",
"l c #F4BE2F",
"z c #F5BE2F",
"x c #EAB331",
"c c #EAB431",
"v c #F0BA33",
"b c #F1BB33",
"n c #F5BF30",
"m c #F3BD34",
"M c #F3BE34",
"N c #F4BE34",
"B c #F7C132",
"V c #F8C336",
"C c #F9C435",
"Z c #FAC435",
"A c #F9C436",
"S c #FAC536",
"D c #FBC636",
"F c #FBC637",
"G c None",
/* pixels */
"GGGGGGGGGGGGGGGGGGGGGG",
"GGGGGGGGGGGGGGGGGGGGGG",
"GGGGGGGGO**.GGGGGGGGGG",
"GGGGGG7pjjjap5GGGGGGGG",
"GGGGGeBZFFFFCj7GGGGGGG",
"GGGGeBFZFZZZZZB7GGGGGG",
"GGG7lFZZZFZFZZZj5GGGGG",
"GGGaZZFFFFFFFZZZeGGGGG",
"GG.lVmbbmbbbbbbZtGGGGG",
"GG@nx1>,>,,,>>3bp@GGGG",
"GG*nx2,,,<<<,,4vp@GGGG",
"GG.jVmbmbbbbmmmZpGGGGG",
"GGGaZZFFZFFZZFZZeGGGGG",
"GGG7nFZZFFZFZFFa*GGGGG",
"GGGGqBFZZFZZFZn7GGGGGG",
"GGGGGenZFFFFCj0GGGGGGG",
"GGGGGG7aljaaa5GGGGGGGG",
"GGGGGGGG.@@.GGGGGGGGGG",
"GGGGGGGGGGGGGGGGGGGGGG",
"GGGGGGGGGGGGGGGGGGGGGG"
};
