/* XPM */
static char * hide_pressed_xpm[] = {
"20 18 32 1",
" 	c None",
".	c #FFFFFF",
"+	c #F4DCB5",
"@	c #F8CF7E",
"#	c #F9C754",
"$	c #FAC856",
"%	c #F5DDB5",
"&	c #F2E4CD",
"*	c #FAC857",
"=	c #FAC638",
"-	c #F9C958",
";	c #FAC63F",
">	c #F9C856",
",	c #F9C857",
"'	c #F4DCB4",
")	c #F5DDB4",
"!	c #F8CE7D",
"~	c #F9C853",
"{	c #DDA62F",
"]	c #C18826",
"^	c #DEA62F",
"/	c #DDA52F",
"(	c #F8CF7D",
"_	c #F4DBB4",
":	c #F4DBB5",
"<	c #F2E3CD",
"[	c #F2E3CE",
"}	c #F9C959",
"|	c #F2E4CE",
"1	c #F5DCB3",
"2	c #FAC854",
"3	c #F4DBB3",
"....................",
"....................",
".......+@#$@%.......",
".....&*======-&.....",
"....&;========;&....",
"....>==========,....",
"...'============)...",
"...!============@...",
"...~={]]]]]]]]^=$...",
"...~=/]]]]]]]]{=$...",
"...(============@...",
"..._============:...",
"....,==========-....",
"....<;========;[....",
".....&>======}|.....",
".......1!~2(3.......",
"....................",
"...................."};
