/* XPM */
static char * hide_pressed_xpm[] = {
"24 24 6 1",
" 	c None",
".	c #DA9E10",
"+	c #85610A",
"@	c #6D4F08",
"#	c #86610A",
"$	c #87620A",
"                        ",
"                        ",
"                        ",
"                        ",
"                        ",
"          ....          ",
"        ........        ",
"       ..........       ",
"      ............      ",
"      ............      ",
"     ..............     ",
"     ...+@@@@@@#...     ",
"     ...#@@@@@@$...     ",
"     ..............     ",
"      ............      ",
"      ............      ",
"       ..........       ",
"        ........        ",
"          ....          ",
"                        ",
"                        ",
"                        ",
"                        ",
"                        "};
