/* XPM */
static char * C:\Users\crime\Shared\macos\metacity_1\minimize_focused_normal_xpm[] = {
"20 18 46 1",
" 	c None",
".	c #F0F0EF",
"+	c #F0F0F0",
"@	c #EFF0F0",
"#	c #EEEBE7",
"$	c #E5CEB2",
"%	c #E4B977",
"&	c #E6B249",
"*	c #E6B149",
"=	c #E5BA78",
"-	c #E6CDB2",
";	c #EEEBE8",
">	c #EADBCC",
",	c #E5B14A",
"'	c #F6C033",
")	c #FAC638",
"!	c #E5B14D",
"~	c #EADCCC",
"{	c #EFF0EF",
"]	c #E9DCCC",
"^	c #EAB231",
"/	c #FAC538",
"(	c #EDEBE7",
"_	c #E6B14A",
":	c #E6B14C",
"<	c #EEEBE6",
"[	c #E5CDB1",
"}	c #E6CEB2",
"|	c #F0EFEF",
"1	c #E5B977",
"2	c #E4B978",
"3	c #E7B147",
"4	c #E7B34B",
"5	c #EFEFF0",
"6	c #E5CCB1",
"7	c #E5CDB2",
"8	c #EFEFEF",
"9	c #EDEAE7",
"0	c #E6B14D",
"a	c #E9DBCC",
"b	c #EAB230",
"c	c #E9DBCD",
"d	c #E5B14E",
"e	c #E9DCCD",
"f	c #EDEAE6",
"g	c #E4CDB0",
".+.+.+.+.+.+.++..+.+",
"++++++++++++++++++++",
"+@+@+@#$%&*=-;@++@+@",
".....>,'))))'!~.....",
"{+{+]^/))))))/^]{+{+",
".@.(_/))))))))/:<@.@",
".@.['))))))))))'}@.@",
"@|@1))))))))))))2|@|",
"+{+3))))))))))))4{+{",
"+5+3))))))))))))45+5",
"+{+1))))))))))))2{+{",
"5556'))))))))))'7555",
"{8{90/))))))))/!(8{8",
"5{5{ab/))))))/bc5{5{",
"8@8@8a,'))))'de88@8@",
"8{8{8{fg%&*=6#{88{8{",
"||||||||||||||||||||",
"85858585858585588585"};
