/* XPM */
static char * C:\Users\crime\Shared\macos\metacity_1\minimize_focused_active_xpm[] = {
"20 18 57 1",
" 	c None",
".	c #F0F0EF",
"+	c #F0F0F0",
"@	c #EFF0F0",
"#	c #EEEAE5",
"$	c #E5CBAD",
"%	c #E4B76F",
"&	c #E6B039",
"*	c #E5CAAD",
"=	c #EEE9E5",
"-	c #E9D9C6",
";	c #E7B143",
">	c #F6C031",
",	c #FAC536",
"'	c #E7B043",
")	c #E9D9C7",
"!	c #EFF0EF",
"~	c #E8D9C7",
"{	c #EBB328",
"]	c #E8D9C8",
"^	c #EEE9E4",
"/	c #E6B043",
"(	c #E7B145",
"_	c #F0EFEF",
":	c #E4B770",
"<	c #E5B872",
"[	c #E6B03B",
"}	c #DBA32B",
"|	c #C08522",
"1	c #DCA42B",
"2	c #E7B13F",
"3	c #EFEFF0",
"4	c #E7B03D",
"5	c #DCA52C",
"6	c #C28723",
"7	c #DDA52C",
"8	c #E6B03F",
"9	c #E5B771",
"0	c #E6B873",
"a	c #E5CBAF",
"b	c #EFEFEF",
"c	c #E6B045",
"d	c #E7B047",
"e	c #EDEAE5",
"f	c #EBB32A",
"g	c #E8DAC9",
"h	c #E9D9C8",
"i	c #E7B147",
"j	c #E5B047",
"k	c #E8DACA",
"l	c #EDEBE6",
"m	c #E5CBAE",
"n	c #E5B874",
"o	c #E6B041",
"p	c #E4B874",
"q	c #E4CCAF",
"r	c #EDEAE6",
".+.+.+.+.+.+.++..+.+",
"++++++++++++++++++++",
"+@+@+#$%&&%*=@@++@+@",
"....-;>,,,,>')......",
"!+!~{,,,,,,,,{]!!+!+",
".@^/,,,,,,,,,,(#.@.@",
".@$>,,,,,,,,,,>$.@.@",
"@_:,,,,,,,,,,,,<@_@_",
"+![,}||||||||1,2+!+!",
"+34,5666666667,8+3+3",
"+!9,,,,,,,,,,,,0+!+!",
"33a>,,,,,,,,,,>a3333",
"!b#c,,,,,,,,,,de!b!b",
"3!3]f,,,,,,,,fg33!3!",
"b@b@hi>,,,,>jk@bb@b@",
"b!b!blmnoopqr!!bb!b!",
"____________________",
"b3b3b3b3b3b3b33bb3b3"};
