/* XPM */
static char * C:\Users\crime\Shared\macos\metacity_1\minimize_focused_pressed_xpm[] = {
"20 18 30 1",
" 	c None",
".	c #F5F5F5",
"+	c #F5F1EC",
"@	c #F7DFB8",
"#	c #F9D081",
"$	c #FAC855",
"%	c #FBC957",
"&	c #F8E0B9",
"*	c #F6F2ED",
"=	c #F6E7D2",
"-	c #FBC959",
";	c #FAC639",
">	c #FAC95A",
",	c #F6E7D3",
"'	c #FAC640",
")	c #F6F1EC",
"!	c #FAC957",
"~	c #FAC959",
"{	c #F9D080",
"]	c #FAC854",
"^	c #DDA62F",
"/	c #C18826",
"(	c #DEA62F",
"_	c #DDA52F",
":	c #F6F1ED",
"<	c #F6E8D2",
"[	c #F6F2EC",
"}	c #F8DFB8",
"|	c #FBC855",
"1	c #F5F1ED",
"....................",
"....................",
".....+@#$%#&*.......",
"....=-;;;;;;>,......",
"...=';;;;;;;;',.....",
"..)!;;;;;;;;;;~*....",
"..@;;;;;;;;;;;;&....",
"..{;;;;;;;;;;;;#....",
"..];^////////(;%....",
"..];_////////^;%....",
"..{;;;;;;;;;;;;#....",
"..@;;;;;;;;;;;;@....",
"..:~;;;;;;;;;;>*....",
"...<';;;;;;;;'=.....",
"....<!;;;;;;>=......",
".....[}{]|{@1.......",
"....................",
"...................."};
