/* XPM */
static char * C:\Users\crime\Shared\macos\metacity_1\maximize_focused_normal_xpm[] = {
"20 18 52 1",
" 	c None",
".	c #F0F0EF",
"+	c #F0F0F0",
"@	c #EFF0F0",
"#	c #E8EDE8",
"$	c #B2DBB3",
"%	c #79D37B",
"&	c #4AD250",
"*	c #77D27A",
"=	c #B1DAB2",
"-	c #E7EDE8",
";	c #CDE3CD",
">	c #4DD252",
",	c #36E444",
"'	c #3BEA4B",
")	c #CCE3CB",
"!	c #EFF0EF",
"~	c #35D63F",
"{	c #33D53E",
"]	c #CBE2CB",
"^	c #4FD254",
"/	c #4AD14F",
"(	c #E7EDE6",
"_	c #B2DBB4",
":	c #36E545",
"<	c #B0DAB0",
"[	c #F0EFEF",
"}	c #7BD27C",
"|	c #75D378",
"1	c #4FD454",
"2	c #47D24D",
"3	c #EFEFF0",
"4	c #4FD354",
"5	c #7AD27C",
"6	c #76D378",
"7	c #B2DAB4",
"8	c #AFDAB1",
"9	c #EFEFEF",
"0	c #E7ECE8",
"a	c #50D155",
"b	c #E6EDE6",
"c	c #CDE2CE",
"d	c #33D53D",
"e	c #CBE1CC",
"f	c #CDE3CE",
"g	c #4DD152",
"h	c #CBE3CC",
"i	c #E7ECE7",
"j	c #B2DBB2",
"k	c #78D27A",
"l	c #B0DAB1",
"m	c #E7EDE7",
".+.+.+.+.+.+.++..+.+",
"++++++++++++++++++++",
"+@+@+@#$%&&*=-@++@+@",
".....;>,'''',>).....",
"!+!+;~''''''''{]!+!+",
".@.-^''''''''''/(@.@",
".@._,'''''''''':<@.@",
"@[@}''''''''''''|[@[",
"+!+1''''''''''''2!+!",
"+3+4''''''''''''23+3",
"+!+5''''''''''''6!+!",
"3337,'''''''''':8333",
"!9!0a''''''''''>b9!9",
"3!3!c~''''''''de3!3!",
"9@9@9fg,'''',>h99@9@",
"9!9!9!ijk&&*lm!99!9!",
"[[[[[[[[[[[[[[[[[[[[",
"93939393939393399393"};
