/* XPM */
static char * maximize_active_xpm[] = {
"24 24 15 1",
" 	c None",
".	c #1FD02D",
"+	c #24D432",
"@	c #24D431",
"#	c #25D431",
"$	c #36E746",
"%	c #39EA49",
"&	c #2CDB3A",
"*	c #2BDB3A",
"=	c #20CF2C",
"-	c #25D432",
";	c #1FD12D",
">	c #24D331",
",	c #2BDB39",
"'	c #20CF2D",
"                        ",
"                        ",
"                        ",
"                        ",
"                        ",
"          .+@.          ",
"        #$%%%%$@        ",
"       &%%%%%%%%*       ",
"      #%%%%%%%%%%+      ",
"      $%%%%%%%%%%$      ",
"     .%%%%%%%%%%%%=     ",
"     -%%%%%%%%%%%%@     ",
"     #%%%%%%%%%%%%+     ",
"     ;%%%%%%%%%%%%=     ",
"      $%%%%%%%%%%$      ",
"      @%%%%%%%%%%>      ",
"       *%%%%%%%%,       ",
"        +$%%%%$>        ",
"          '@@'          ",
"                        ",
"                        ",
"                        ",
"                        ",
"                        "};
