/* XPM */
static char * maximize_pressed_xpm[] = {
"24 24 6 1",
" 	c None",
".	c #12C11E",
"+	c #13C11E",
"@	c #0B8E10",
"#	c #066D07",
"$	c #12C01D",
"                        ",
"                        ",
"                        ",
"                        ",
"                        ",
"          .+++          ",
"        ++++++++        ",
"       ++++++++++       ",
"      +++++@@+++++      ",
"      +++++##+++++      ",
"     $+++++##++++++     ",
"     +++@######@+++     ",
"     +++@######@+++     ",
"     .+++++##++++++     ",
"      +++++##+++++      ",
"      +++++@@+++++      ",
"       ++++++++++       ",
"        ++++++++        ",
"          ++++          ",
"                        ",
"                        ",
"                        ",
"                        ",
"                        "};
