/* XPM */
static char * maximize_pressed_xpm[] = {
"24 24 10 1",
" 	c None",
".	c #12C11E",
"+	c #13C11E",
"@	c #11B01B",
"#	c #0A6810",
"$	c #09600F",
"%	c #0D8114",
"&	c #12C01D",
"*	c #12B21C",
"=	c #0A6A10",
"                        ",
"                        ",
"                        ",
"                        ",
"                        ",
"          .+++          ",
"        ++++++++        ",
"       ++++++++++       ",
"      ++++++++++++      ",
"      ++++@#$$%+++      ",
"     &+++@+@#$$++++     ",
"     ++++#@+*=$++++     ",
"     ++++$#@+*=++++     ",
"     .+++$$#@+@++++     ",
"      +++%$$#@++++      ",
"      ++++++++++++      ",
"       ++++++++++       ",
"        ++++++++        ",
"          ++++          ",
"                        ",
"                        ",
"                        ",
"                        ",
"                        "};
