/* XPM */
static char * C:\Users\crime\Shared\macos\metacity_1\maximize_focused_active_xpm[] = {
"20 18 29 1",
" 	c None",
".	c #F5F5F5",
"+	c #ECF1EC",
"@	c #B6DEB7",
"#	c #7BD47D",
"$	c #4CD351",
"%	c #7AD47C",
"&	c #B5DDB5",
"*	c #D2E7D2",
"=	c #4FD254",
"-	c #36E444",
";	c #3BEA4B",
">	c #D0E7D0",
",	c #36D63F",
"'	c #26B32F",
")	c #33D63E",
"!	c #D0E6D0",
"~	c #50D255",
"{	c #066D07",
"]	c #4BD251",
"^	c #B7DEB7",
"/	c #36E545",
"(	c #B4DDB4",
"_	c #7DD47F",
":	c #78D47A",
"<	c #51D456",
"[	c #48D24E",
"}	c #EDF2ED",
"|	c #52D156",
"....................",
"....................",
".....+@#$$%&+.......",
"....*=-;;;;-=>......",
"...*,;;;'';;;)!.....",
"..+~;;;;{{;;;;]+....",
"..^-;;;;{{;;;;/(....",
".._;;;;;{{;;;;;:....",
"..<;'{{{{{{{{';[....",
"..<;'{{{{{{{{';[....",
".._;;;;;{{;;;;;:....",
"..^-;;;;{{;;;;/(....",
"..}|;;;;{{;;;;=+....",
"...*,;;;'';;;)!.....",
"....*=-;;;;-=>......",
".....+@#$$%&+.......",
"....................",
"...................."};
