/* XPM */
static char * C:\Users\crime\Shared\macos\metacity_1\maximize_focused_active_xpm[] = {
"20 18 54 1",
" 	c None",
".	c #F0F0EF",
"+	c #F0F0F0",
"@	c #EFF0F0",
"#	c #E8EDE8",
"$	c #B2DBB3",
"%	c #79D37B",
"&	c #4AD250",
"*	c #77D27A",
"=	c #B1DAB2",
"-	c #E7EDE8",
";	c #CDE3CD",
">	c #4DD252",
",	c #36E444",
"'	c #3BEA4B",
")	c #CCE3CB",
"!	c #EFF0EF",
"~	c #35D63F",
"{	c #26B32F",
"]	c #33D53E",
"^	c #CBE2CB",
"/	c #4FD254",
"(	c #066D07",
"_	c #4AD14F",
":	c #E7EDE6",
"<	c #B2DBB4",
"[	c #36E545",
"}	c #B0DAB0",
"|	c #F0EFEF",
"1	c #7BD27C",
"2	c #75D378",
"3	c #4FD454",
"4	c #47D24D",
"5	c #EFEFF0",
"6	c #4FD354",
"7	c #7AD27C",
"8	c #76D378",
"9	c #B2DAB4",
"0	c #AFDAB1",
"a	c #EFEFEF",
"b	c #E7ECE8",
"c	c #50D155",
"d	c #E6EDE6",
"e	c #CDE2CE",
"f	c #33D53D",
"g	c #CBE1CC",
"h	c #CDE3CE",
"i	c #4DD152",
"j	c #CBE3CC",
"k	c #E7ECE7",
"l	c #B2DBB2",
"m	c #78D27A",
"n	c #B0DAB1",
"o	c #E7EDE7",
".+.+.+.+.+.+.++..+.+",
"++++++++++++++++++++",
"+@+@+@#$%&&*=-@++@+@",
".....;>,'''',>).....",
"!+!+;~'''{{''']^!+!+",
".@.-/''''((''''_:@.@",
".@.<,''''((''''[}@.@",
"@|@1'''''(('''''2|@|",
"+!+3'{(((((((({'4!+!",
"+5+6'{(((((((({'45+5",
"+!+7'''''(('''''8!+!",
"5559,''''((''''[0555",
"!a!bc''''((''''>da!a",
"5!5!e~'''{{'''fg5!5!",
"a@a@ahi,'''',>jaa@a@",
"a!a!a!klm&&*no!aa!a!",
"||||||||||||||||||||",
"a5a5a5a5a5a5a55aa5a5"};
