/* XPM */
static char *maximize_inactive[] = {
/* columns rows colors chars-per-pixel */
"22 20 17 1 ",
"  c #B8B8B8",
". c #B9B9B9",
"X c #BABABA",
"o c #BBBBBB",
"O c #BCBCBC",
"+ c #BDBDBD",
"@ c #BEBEBE",
"# c #BFBFBF",
"$ c #C1C1C1",
"% c #C2C2C2",
"& c #C3C3C3",
"* c #C4C4C4",
"= c #C6C6C6",
"- c #C7C7C7",
"; c #C8C8C8",
": c #C9C9C9",
"> c None",
/* pixels */
">>>>>>>>>>>>>>>>>>>>>>",
">>>>>>>>>>>>>>>>>>>>>>",
">>>>>>>>... >>>>>>>>>>",
">>>>>>+%%--%%+>>>>>>>>",
">>>>>+--;;;;-%+>>>>>>>",
">>>>%-;;;;;;;;-+>>>>>>",
">>>+%;;;;;;-;;;%+>>>>>",
">>>%;;;;;;;;;;;-+>>>>>",
">>.%;;;;;;;;;;;;%>>>>>",
">>.-;;;;;;;;;;;;%.>>>>",
">>.%;;;-;;;;;;;;%.>>>>",
">> -;;;;;;;;;;;;%>>>>>",
">>>%---;;;;;;;;-%>>>>>",
">>>+-;;;-;;;;;;%.>>>>>",
">>>>+-;;;;;;---.>>>>>>",
">>>>>+-;;;;;--+>>>>>>>",
">>>>>>+%-%%-%.>>>>>>>>",
">>>>>>>>....>>>>>>>>>>",
">>>>>>>>>>>>>>>>>>>>>>",
">>>>>>>>>>>>>>>>>>>>>>"
};
