/* XPM */
static char * maximize_pressed_xpm[] = {
"20 18 47 1",
" 	c None",
".	c #FFFFFF",
"+	c #B2DAB3",
"@	c #79CC7A",
"#	c #47C54B",
"$	c #46C449",
"%	c #77CC79",
"&	c #B1DAB2",
"*	c #CEE4CD",
"=	c #4BC54E",
"-	c #19C222",
";	c #4AC54C",
">	c #CCE3CB",
",	c #CDE4CD",
"'	c #2AC230",
")	c #159D1A",
"!	c #27C22D",
"~	c #CBE3CB",
"{	c #12C11D",
"]	c #12C11E",
"^	c #066D07",
"/	c #13C11D",
"(	c #12C21D",
"_	c #B3DBB4",
":	c #13C11E",
"<	c #13C21D",
"[	c #13C21E",
"}	c #B1DAB0",
"|	c #7ACC7A",
"1	c #74CB76",
"2	c #42C545",
"3	c #79CC7B",
"4	c #12C21E",
"5	c #B2DAB4",
"6	c #AFD9B1",
"7	c #4DC550",
"8	c #49C64C",
"9	c #CDE3CE",
"0	c #2AC330",
"a	c #CBE2CC",
"b	c #CDE4CE",
"c	c #49C54C",
"d	c #49C54D",
"e	c #45C449",
"f	c #43C347",
"g	c #76CC78",
"h	c #B0DAB0",
"....................",
"....................",
".......+@#$%&.......",
".....*=------;>.....",
"....,'---))---!~....",
"....=-{]{^^/((-$....",
"..._--//:^^(<[--}...",
"...|--({:^^[[[--1...",
"...=-)^^^^^^^^)-2...",
"...=-)^^^^^^^^)-2...",
"...3--]{(^^([4--1...",
"...5--(]/^^<][--6...",
"....7-(:4^^[[[-8....",
"....90---))---!a....",
".....bc------da.....",
".......&%efgh.......",
"....................",
"...................."};
