/* XPM */
static char * C:\Users\crime\Shared\macos\metacity_1\maximize_focused_pressed_xpm[] = {
"20 18 59 1",
" 	c None",
".	c #F0F0EF",
"+	c #F0F0F0",
"@	c #EFF0F0",
"#	c #E8EDE8",
"$	c #B2DAB3",
"%	c #79CC7A",
"&	c #47C54B",
"*	c #46C449",
"=	c #77CC79",
"-	c #B1DAB2",
";	c #E7EDE8",
">	c #CEE4CD",
",	c #4BC54E",
"'	c #19C222",
")	c #4AC54C",
"!	c #CCE3CB",
"~	c #EFF0EF",
"{	c #CDE4CD",
"]	c #2AC230",
"^	c #159D1A",
"/	c #27C22D",
"(	c #CBE3CB",
"_	c #12C11D",
":	c #12C11E",
"<	c #066D07",
"[	c #13C11D",
"}	c #12C21D",
"|	c #E7EDE6",
"1	c #B3DBB4",
"2	c #13C11E",
"3	c #13C21D",
"4	c #13C21E",
"5	c #B1DAB0",
"6	c #F0EFEF",
"7	c #7ACC7A",
"8	c #74CB76",
"9	c #42C545",
"0	c #EFEFF0",
"a	c #79CC7B",
"b	c #12C21E",
"c	c #B2DAB4",
"d	c #AFD9B1",
"e	c #EFEFEF",
"f	c #E7ECE8",
"g	c #4DC550",
"h	c #49C64C",
"i	c #E6EDE6",
"j	c #CDE3CE",
"k	c #2AC330",
"l	c #CBE2CC",
"m	c #CDE4CE",
"n	c #49C54C",
"o	c #49C54D",
"p	c #E6ECE6",
"q	c #45C449",
"r	c #43C347",
"s	c #76CC78",
"t	c #B0DAB0",
".+.+.+.+.+.+.++..+.+",
"++++++++++++++++++++",
"+@+@+@#$%&*=-;@++@+@",
".....>,'''''')!.....",
"~+~+{]'''^^'''/(~+~+",
".@.;,'_:_<<[}}'*|@.@",
".@.1''[[2<<}34''5@.@",
"@6@7''}_2<<444''86@6",
"+~+,'^<<<<<<<<^'9~+~",
"+0+,'^<<<<<<<<^'90+0",
"+~+a'':_}<<}4b''8~+~",
"000c''}:[<<3:4''d000",
"~e~fg'}2b<<444'hie~e",
"0~0~jk'''^^'''/l0~0~",
"e@e@emn''''''olee@e@",
"e~e~e~p-=qrsti~ee~e~",
"66666666666666666666",
"e0e0e0e0e0e0e00ee0e0"};
