/* XPM */
static char * C:\Users\crime\Shared\macos\metacity_1\maximize_focused_normal_xpm[] = {
"20 18 52 1",
" 	c None",
".	c #F0F0EF",
"+	c #F0F0F0",
"@	c #EFF0F0",
"#	c #E7EDE8",
"$	c #B2DBB3",
"%	c #78D37B",
"&	c #4AD250",
"*	c #78D27A",
"=	c #B0DAB2",
"-	c #E8EDE8",
";	c #CDE3CD",
">	c #4DD252",
",	c #36E444",
"'	c #3BEA4B",
")	c #CCE3CB",
"!	c #EFF0EF",
"~	c #CDE3CE",
"{	c #35D63F",
"]	c #33D53E",
"^	c #CBE2CC",
"/	c #E8EDE7",
"(	c #4ED254",
"_	c #4AD150",
":	c #E7EDE6",
"<	c #B3DBB3",
"[	c #36E545",
"}	c #B0DAB0",
"|	c #F0EFEF",
"1	c #7AD27D",
"2	c #75D378",
"3	c #4FD454",
"4	c #47D24D",
"5	c #EFEFF0",
"6	c #7BD27D",
"7	c #76D378",
"8	c #B2DAB4",
"9	c #AFDAB1",
"0	c #EFEFEF",
"a	c #50D155",
"b	c #4DD152",
"c	c #E6EDE6",
"d	c #33D53D",
"e	c #CBE2CB",
"f	c #CDE2CD",
"g	c #CBE3CC",
"h	c #E7EDE7",
"i	c #B2DAB2",
"j	c #78D37A",
"k	c #77D27A",
"l	c #B0DAB1",
"m	c #E7ECE7",
".+.+.+.+.+.+.++..+.+",
"++++++++++++++++++++",
"+@+@+#$%&&*=-@@++@+@",
"....;>,'''',>)......",
"!+!~{'''''''']^!!+!+",
".@/(''''''''''_:.@.@",
".@<,''''''''''[}.@.@",
"@|1''''''''''''2@|@|",
"+!3''''''''''''4+!+!",
"+53''''''''''''4+5+5",
"+!6''''''''''''7+!+!",
"558,''''''''''[95555",
"!0#a''''''''''bc!0!0",
"5!5;{''''''''de55!5!",
"0@0@f>,'''',bg@00@0@",
"0!0!0hij&&klm!!00!0!",
"||||||||||||||||||||",
"05050505050505500505"};
