/* XPM */
static char *maximize_prelight[] = {
/* columns rows colors chars-per-pixel */
"22 20 118 2 ",
"   c #0A7105",
".  c #0A7206",
"X  c #0B7306",
"o  c #0B7407",
"O  c #0D7A0A",
"+  c #0E7B0B",
"@  c #0E7D0C",
"#  c #0F7E0C",
"$  c #179318",
"%  c #179319",
"&  c #189419",
"*  c #189519",
"=  c #1A9A1C",
"-  c #1A9B1D",
";  c #1A9C1D",
":  c #1B9D1E",
">  c #1B9F1F",
",  c #1C9E1E",
"<  c #1DA321",
"1  c #1DA421",
"2  c #1DA422",
"3  c #1EA422",
"4  c #25B72C",
"5  c #28BF31",
"6  c #1BC928",
"7  c #1CCB28",
"8  c #1DCB28",
"9  c #1CCB29",
"0  c #1DCC29",
"q  c #20CF2C",
"w  c #21CF2D",
"e  c #20D02C",
"r  c #20D02D",
"t  c #21D02D",
"y  c #21D12D",
"u  c #23D12F",
"i  c #22D22F",
"p  c #29C132",
"a  c #2BC534",
"s  c #2BC735",
"d  c #2CC836",
"f  c #2ECD38",
"g  c #2ECD39",
"h  c #2ECE39",
"j  c #2ECF39",
"k  c #2FCF39",
"l  c #2FCF3A",
"z  c #23D230",
"x  c #24D332",
"c  c #25D432",
"v  c #25D532",
"b  c #25D533",
"n  c #26D633",
"m  c #26D634",
"M  c #28D836",
"N  c #29D836",
"B  c #29D936",
"V  c #29DA37",
"C  c #29D938",
"Z  c #2CDC3A",
"A  c #2DDD3B",
"S  c #2DDE3B",
"D  c #2DDE3C",
"F  c #2EDE3C",
"G  c #2FDE3D",
"H  c #2EDF3D",
"J  c #2FDF3D",
"K  c #30D43D",
"L  c #31D43D",
"P  c #31D73E",
"I  c #32D73E",
"U  c #32D73F",
"Y  c #32D83F",
"T  c #32D93F",
"R  c #2FE03E",
"E  c #30E03F",
"W  c #30E13F",
"Q  c #31E13F",
"!  c #33DB40",
"~  c #33DC41",
"^  c #34DC41",
"/  c #34DD41",
"(  c #34DD42",
")  c #35DF43",
"_  c #35DF44",
"`  c #31E140",
"'  c #31E240",
"]  c #32E241",
"[  c #32E341",
"{  c #32E342",
"}  c #33E342",
"|  c #35E043",
" . c #34E443",
".. c #35E144",
"X. c #36E244",
"o. c #36E245",
"O. c #36E345",
"+. c #37E346",
"@. c #35E644",
"#. c #37E446",
"$. c #37E546",
"%. c #37E647",
"&. c #38E947",
"*. c #38E748",
"=. c #38E848",
"-. c #38E948",
";. c #38EA48",
":. c #38EA49",
">. c #39EA49",
",. c #38EB49",
"<. c #39EB49",
"1. c #39EB4A",
"2. c #3AEB4A",
"3. c #3AEC4A",
"4. c #3AEC4B",
"5. c #3AED4B",
"6. c #3BED4B",
"7. c None",
/* pixels */
"7.7.7.7.7.7.7.7.7.7.7.7.7.7.7.7.7.7.7.7.7.7.",
"7.7.7.7.7.7.7.7.7.7.7.7.7.7.7.7.7.7.7.7.7.7.",
"7.7.7.7.7.7.7.7.0 t t 0 7.7.7.7.7.7.7.7.7.7.",
"7.7.7.7.7.7.b J { E E E J z 7.7.7.7.7.7.7.7.",
"7.7.7.7.7.N { ;.4.4.4.4.;.E b 7.7.7.7.7.7.7.",
"7.7.7.7.N @.3.#.K k k k k +.} c 7.7.7.7.7.7.",
"7.7.7.c { 4.;.+.p = & $ & p @./ z 7.7.7.7.7.",
"7.7.7.J ;.@.*.;.! : O . . : Y ,.N 7.7.7.7.7.",
"7.7.6 R ;.K a / ;./ : + o : ! ;.Z 6 7.7.7.7.",
"7.7.w { 4.k : < +.;./ : + : ! 4.A q 7.7.7.7.",
"7.7.t { 4.k $ + < +.&./ : < P 3.A w 7.7.7.7.",
"7.7.6 { 4.k $ . + 1 +.@.! a / 3.A 8 7.7.7.7.",
"7.7.7.J ;.k $ . o + 1 _ ;.+.*.;.C 7.7.7.7.7.",
"7.7.7.x { _ 4 & * * > a %.;.3.J z 7.7.7.7.7.",
"7.7.7.7.N @._ l k k k ! ;.;.{ b 7.7.7.7.7.7.",
"7.7.7.7.7.M } 4.4.4.4.3.;.{ b 7.7.7.7.7.7.7.",
"7.7.7.7.7.7.c J E { E E A t 7.7.7.7.7.7.7.7.",
"7.7.7.7.7.7.7.7.8 w w 6 7.7.7.7.7.7.7.7.7.7.",
"7.7.7.7.7.7.7.7.7.7.7.7.7.7.7.7.7.7.7.7.7.7.",
"7.7.7.7.7.7.7.7.7.7.7.7.7.7.7.7.7.7.7.7.7.7."
};
