/* XPM */
static char * C:\Users\crime\Shared\macos\metacity_1\maximize_focused_active_xpm[] = {
"20 18 54 1",
" 	c None",
".	c #F0F0EF",
"+	c #F0F0F0",
"@	c #EFF0F0",
"#	c #E7EDE8",
"$	c #B2DBB3",
"%	c #78D37B",
"&	c #4AD250",
"*	c #78D27A",
"=	c #B0DAB2",
"-	c #E8EDE8",
";	c #CDE3CD",
">	c #4DD252",
",	c #36E444",
"'	c #3BEA4B",
")	c #CCE3CB",
"!	c #EFF0EF",
"~	c #CDE3CE",
"{	c #35D63F",
"]	c #26B32F",
"^	c #33D53E",
"/	c #CBE2CC",
"(	c #E8EDE7",
"_	c #4ED254",
":	c #066D07",
"<	c #4AD150",
"[	c #E7EDE6",
"}	c #B3DBB3",
"|	c #36E545",
"1	c #B0DAB0",
"2	c #F0EFEF",
"3	c #7AD27D",
"4	c #75D378",
"5	c #4FD454",
"6	c #47D24D",
"7	c #EFEFF0",
"8	c #7BD27D",
"9	c #76D378",
"0	c #B2DAB4",
"a	c #AFDAB1",
"b	c #EFEFEF",
"c	c #50D155",
"d	c #4DD152",
"e	c #E6EDE6",
"f	c #33D53D",
"g	c #CBE2CB",
"h	c #CDE2CD",
"i	c #CBE3CC",
"j	c #E7EDE7",
"k	c #B2DAB2",
"l	c #78D37A",
"m	c #77D27A",
"n	c #B0DAB1",
"o	c #E7ECE7",
".+.+.+.+.+.+.++..+.+",
"++++++++++++++++++++",
"+@+@+#$%&&*=-@@++@+@",
"....;>,'''',>)......",
"!+!~{''']]'''^/!!+!+",
".@(_''''::''''<[.@.@",
".@},''''::''''|1.@.@",
"@23'''''::'''''4@2@2",
"+!5']::::::::]'6+!+!",
"+75']::::::::]'6+7+7",
"+!8'''''::'''''9+!+!",
"770,''''::''''|a7777",
"!b#c''''::''''de!b!b",
"7!7;{''']]'''fg77!7!",
"b@b@h>,'''',di@bb@b@",
"b!b!bjkl&&mno!!bb!b!",
"22222222222222222222",
"b7b7b7b7b7b7b77bb7b7"};
