/* XPM */
static char * C:\Users\crime\Shared\macos\metacity_1\maximize_focused_pressed_xpm[] = {
"20 18 61 1",
" 	c None",
".	c #F0F0EF",
"+	c #F0F0F0",
"@	c #EFF0F0",
"#	c #E7EDE8",
"$	c #B2DAB3",
"%	c #78CC7A",
"&	c #48C54B",
"*	c #45C449",
"=	c #78CC79",
"-	c #B0DAB2",
";	c #E8EDE8",
">	c #CEE4CD",
",	c #4BC54E",
"'	c #19C222",
")	c #4AC54C",
"!	c #CCE3CB",
"~	c #EFF0EF",
"{	c #CEE4CE",
"]	c #2AC230",
"^	c #159D1A",
"/	c #27C22D",
"(	c #CCE3CC",
"_	c #E8EDE7",
":	c #12C11D",
"<	c #12C11E",
"[	c #066D07",
"}	c #13C11D",
"|	c #12C21D",
"1	c #E7EDE6",
"2	c #B4DBB3",
"3	c #13C11E",
"4	c #13C21D",
"5	c #13C21E",
"6	c #B1DAB0",
"7	c #F0EFEF",
"8	c #79CC7B",
"9	c #74CB76",
"0	c #42C545",
"a	c #EFEFF0",
"b	c #7ACC7B",
"c	c #12C21E",
"d	c #B2DAB4",
"e	c #AFD9B1",
"f	c #EFEFEF",
"g	c #4DC550",
"h	c #49C64C",
"i	c #E6EDE6",
"j	c #CDE4CD",
"k	c #2AC330",
"l	c #CBE3CB",
"m	c #CDE3CD",
"n	c #49C54D",
"o	c #49C54C",
"p	c #CBE2CC",
"q	c #B1D9B2",
"r	c #77CC79",
"s	c #43C347",
"t	c #76CC78",
"u	c #B0DAB0",
"v	c #E6ECE6",
".+.+.+.+.+.+.++..+.+",
"++++++++++++++++++++",
"+@+@+#$%&*=-;@@++@+@",
"....>,'''''')!......",
"~+~{]'''^^'''/(~~+~+",
".@_,':<:[[}||'*1.@.@",
".@2''}}3[[|45''6.@.@",
"@78''|:3[[555''9@7@7",
"+~,'^[[[[[[[[^'0+~+~",
"+a,'^[[[[[[[[^'0+a+a",
"+~b''<:|[[|5c''9+~+~",
"aad''|<}[[4<5''eaaaa",
"~f#g'|3c[[555'hi~f~f",
"a~ajk'''^^'''/laa~a~",
"f@f@mn''''''op@ff@f@",
"f~f~fiqr*stuv~~ff~f~",
"77777777777777777777",
"fafafafafafafaaffafa"};
