/* XPM */
static char *maximize_pressed[] = {
/* columns rows colors chars-per-pixel */
"22 20 56 1 ",
"  c #0B7206",
". c #0B7307",
"X c #0B7407",
"o c #0B7808",
"O c #0C7909",
"+ c #0C7A09",
"@ c #0C7B09",
"# c #0D890D",
"$ c #0D8A0D",
"% c #0E8A0D",
"& c #0D8A0E",
"* c #0D8D0E",
"= c #0E8E0E",
"- c #0E8E0F",
"; c #0E8F0F",
": c #0E900F",
"> c #0E910F",
", c #0E9410",
"< c #0E9510",
"1 c #0FA014",
"2 c #10A716",
"3 c #10A917",
"4 c #10AB17",
"5 c #10AC17",
"6 c #11AE18",
"7 c #11AF18",
"8 c #11AF19",
"9 c #11B018",
"0 c #11B019",
"q c #11B119",
"w c #11B41A",
"e c #12B51A",
"r c #12B61A",
"t c #12B61B",
"y c #12B71B",
"u c #12B81B",
"i c #12B91B",
"p c #12B91C",
"a c #12BA1C",
"s c #12BB1C",
"d c #12BC1C",
"f c #12BD1C",
"g c #12BD1D",
"h c #12BE1D",
"j c #13BE1D",
"k c #13BF1D",
"l c #13C01D",
"z c #13C11D",
"x c #13C01E",
"c c #13C11E",
"v c #13C11F",
"b c #13C21E",
"n c #13C31E",
"m c #14C11E",
"M c #13C41E",
"N c None",
/* pixels */
"NNNNNNNNNNNNNNNNNNNNNN",
"NNNNNNNNNNNNNNNNNNNNNN",
"NNNNNNNNbbbjNNNNNNNNNN",
"NNNNNNbbbbbbbbNNNNNNNN",
"NNNNNbbbbbMbbbbNNNNNNN",
"NNNNbbbjt8q8qjbbNNNNNN",
"NNNbbbbj1,###2jbmNNNNN",
"NNNbbjjbt:o  ,tbbNNNNN",
"NNbbbt4ubu*OX:tMbNNNNN",
"NNbbbq*<ubu*O:tbbbNNNN",
"NNbbM8#O<jbu*<tMbbNNNN",
"NNbbb8#X@<jju4ubbNNNNN",
"NNNbMq# XO<ubjjbbNNNNN",
"NNNbMu1##*:4bbbbmNNNNN",
"NNNNbbuqqqqtbbbbNNNNNN",
"NNNNNbMMMMbbbbbNNNNNNN",
"NNNNNNbbbbbbbmNNNNNNNN",
"NNNNNNNNbbjbNNNNNNNNNN",
"NNNNNNNNNNNNNNNNNNNNNN",
"NNNNNNNNNNNNNNNNNNNNNN"
};
