/* XPM */
static char * maximize_active_xpm[] = {
"20 18 39 1",
" 	c None",
".	c #FFFFFF",
"+	c #B2DBB3",
"@	c #79D37B",
"#	c #4AD250",
"$	c #77D27A",
"%	c #B1DAB2",
"&	c #CDE3CD",
"*	c #4DD252",
"=	c #36E444",
"-	c #3BEA4B",
";	c #CCE3CB",
">	c #35D63F",
",	c #33D53E",
"'	c #CBE2CB",
")	c #4FD254",
"!	c #4AD14F",
"~	c #B2DBB4",
"{	c #36E545",
"]	c #B0DAB0",
"^	c #7BD27C",
"/	c #75D378",
"(	c #4FD454",
"_	c #47D24D",
":	c #4FD354",
"<	c #7AD27C",
"[	c #76D378",
"}	c #B2DAB4",
"|	c #AFDAB1",
"1	c #50D155",
"2	c #CDE2CE",
"3	c #33D53D",
"4	c #CBE1CC",
"5	c #CDE3CE",
"6	c #4DD152",
"7	c #CBE3CC",
"8	c #B2DBB2",
"9	c #78D27A",
"0	c #B0DAB1",
"....................",
"....................",
".......+@##$%.......",
".....&*=----=*;.....",
"....&>--------,'....",
"....)----------!....",
"...~=----------{]...",
"...^------------/...",
"...(------------_...",
"...:------------_...",
"...<------------[...",
"...}=----------{|...",
"....1----------*....",
"....2>--------34....",
".....56=----=*7.....",
".......89##$0.......",
"....................",
"...................."};
