/* XPM */
static char *maximize_active[] = {
/* columns rows colors chars-per-pixel */
"22 20 38 1 ",
"  c #1BC927",
". c #1CC928",
"X c #1CCA28",
"o c #1FCE2D",
"O c #1FD02C",
"+ c #20CF2D",
"@ c #21D12E",
"# c #22D12E",
"$ c #22D12F",
"% c #23D330",
"& c #23D331",
"* c #25D332",
"= c #24D431",
"- c #25D432",
"; c #26D533",
": c #28D736",
"> c #28D836",
", c #29D937",
"< c #2CDC3A",
"1 c #2DDD3B",
"2 c #2DDD3C",
"3 c #2DDE3C",
"4 c #2EDE3D",
"5 c #2EDF3D",
"6 c #30E03F",
"7 c #30E13F",
"8 c #31E140",
"9 c #31E240",
"0 c #32E241",
"q c #32E341",
"w c #32E342",
"e c #35E544",
"r c #37E847",
"t c #37E947",
"y c #38E948",
"u c #39EA49",
"i c #3AEB4A",
"p c None",
/* pixels */
"pppppppppppppppppppppp",
"pppppppppppppppppppppp",
"ppppppppX+o pppppppppp",
"pppppp;47q771@pppppppp",
"ppppp>wyiiiir7;ppppppp",
"pppp>eiiiyiyyiq;pppppp",
"ppp&qiyyyiyiiyy7&ppppp",
"ppp4yyyiiyiiyyyy>ppppp",
"pp.qiiiyiyiyiiyi<ppppp",
"ppoqiiyiyiyiiyii4opppp",
"ppoqiyiyiiyiiyii4+pppp",
"pp.qiiiyiyiyiiyi1ppppp",
"ppp4yyiiiyiiyiiy>ppppp",
"ppp&qiiyiiyyiyi4@ppppp",
"pppp>eiyyiyiyyw*pppppp",
"ppppp>wyiiiiyq;ppppppp",
"pppppp;17q771@pppppppp",
"ppppppppX++ pppppppppp",
"pppppppppppppppppppppp",
"pppppppppppppppppppppp"
};
