/* XPM */
static char * maximize_prelight_xpm[] = {
"20 18 41 1",
" 	c None",
".	c #FFFFFF",
"+	c #B2DBB3",
"@	c #79D37B",
"#	c #4AD250",
"$	c #77D27A",
"%	c #B1DAB2",
"&	c #CDE3CD",
"*	c #4DD252",
"=	c #36E444",
"-	c #3BEA4B",
";	c #CCE3CB",
">	c #35D63F",
",	c #26B32F",
"'	c #33D53E",
")	c #CBE2CB",
"!	c #4FD254",
"~	c #066D07",
"{	c #4AD14F",
"]	c #B2DBB4",
"^	c #36E545",
"/	c #B0DAB0",
"(	c #7BD27C",
"_	c #75D378",
":	c #4FD454",
"<	c #47D24D",
"[	c #4FD354",
"}	c #7AD27C",
"|	c #76D378",
"1	c #B2DAB4",
"2	c #AFDAB1",
"3	c #50D155",
"4	c #CDE2CE",
"5	c #33D53D",
"6	c #CBE1CC",
"7	c #CDE3CE",
"8	c #4DD152",
"9	c #CBE3CC",
"0	c #B2DBB2",
"a	c #78D27A",
"b	c #B0DAB1",
"....................",
"....................",
".......+@##$%.......",
".....&*=----=*;.....",
"....&>---,,---')....",
"....!----~~----{....",
"...]=----~~----^/...",
"...(-----~~-----_...",
"...:-,~~~~~~~~,-<...",
"...[-,~~~~~~~~,-<...",
"...}-----~~-----|...",
"...1=----~~----^2...",
"....3----~~----*....",
"....4>---,,---56....",
".....78=----=*9.....",
".......0a##$b.......",
"....................",
"...................."};
