/* XPM */
static char * C:\Users\crime\Shared\macos\metacity_1\maximize_focused_pressed_xpm[] = {
"20 18 43 1",
" 	c None",
".	c #F5F5F5",
"+	c #ECF1EC",
"@	c #B6DDB7",
"#	c #7BCD7D",
"$	c #49C54C",
"%	c #47C54B",
"&	c #7ACD7C",
"*	c #B5DDB5",
"=	c #D2E8D3",
"-	c #4DC650",
";	c #1AC223",
">	c #4BC54E",
",	c #D0E7D0",
"'	c #2BC231",
")	c #159D1A",
"!	c #27C22E",
"~	c #EDF2ED",
"{	c #12C11D",
"]	c #12C11E",
"^	c #066D07",
"/	c #13C11D",
"(	c #12C21D",
"_	c #B7DEB8",
":	c #13C11E",
"<	c #13C21D",
"[	c #13C21E",
"}	c #B4DDB5",
"|	c #7CCE7D",
"1	c #77CD78",
"2	c #43C547",
"3	c #7CCE7E",
"4	c #12C21E",
"5	c #B7DEB7",
"6	c #B4DCB4",
"7	c #4FC652",
"8	c #4BC64E",
"9	c #D2E8D2",
"0	c #2BC331",
"a	c #D0E6D0",
"b	c #B5DDB6",
"c	c #45C449",
"d	c #79CD7B",
"....................",
"....................",
".....+@#$%&*+.......",
"....=-;;;;;;>,......",
"...=';;;));;;!,.....",
"..~-;{]{^^/((;%+....",
".._;;//:^^(<[;;}....",
"..|;;({:^^[[[;;1....",
"..-;)^^^^^^^^);2....",
"..-;)^^^^^^^^);2....",
"..3;;]{(^^([4;;1....",
"..5;;(]/^^<][;;6....",
"..~7;(:4^^[[[;8+....",
"...90;;;));;;!,.....",
"....9>;;;;;;>a......",
".....+b&%cd}+.......",
"....................",
"...................."};
