/* XPM */
static char * title_3_active_xpm[] = {
"4 25 9 1",
" 	c None",
".	c #F0F0F0",
"+	c #EFF0F0",
"@	c #F0EFF0",
"#	c #F0F0EF",
"$	c #EFEFF0",
"%	c #EFF0EF",
"&	c #F0EFEF",
"*	c #EFEFEF",
"....",
"....",
".+..",
"@..@",
"..#.",
"@#..",
"...+",
"..##",
".$%.",
"%.#+",
"$&#+",
"$@+&",
".$.%",
"$+.$",
"$&.%",
"%%$$",
"*%%*",
"%*$%",
"***+",
"%**%",
"**&&",
"&**$",
"***&",
"%**%",
"****"};
