/* XPM */
static char * top_right_active_xpm[] = {
"8 29 9 1",
" 	c None",
".	c #F0F0F0",
"+	c #EFF0F0",
"@	c #F0EFF0",
"#	c #F0F0EF",
"$	c #EFF0EF",
"%	c #EFEFF0",
"&	c #F0EFEF",
"*	c #EFEFEF",
"....    ",
"......  ",
"..+.... ",
"@...... ",
"........",
"........",
"..+.+.+.",
"@..@.@.@",
".#......",
"..#@#@#@",
"+.......",
"##......",
".$%.%.%.",
"+#.$.$.$",
"+#&%&%&%",
"&+@%@%@%",
"$.%.%.%.",
"%.+%+%+%",
"$.&%&%&%",
"%%$$$$$$",
"*$$*$*$*",
"$%*$*$*$",
"+*******",
"$**$*$*$",
"&&******",
"%**&*&*&",
"&*******",
"$**$*$*$",
"********"};
