/* XPM */
static char * C:\Users\crime\Shared\macos\metacity_1\unfocused_normal_xpm[] = {
"20 18 16 1",
" 	c None",
".	c #E4E4E4",
"+	c #E0E0E0",
"@	c #CECECE",
"#	c #C3C3C3",
"$	c #BEBEBE",
"%	c #C2C2C2",
"&	c #E1E1E1",
"*	c #D7D7D7",
"=	c #BDBDBD",
"-	c #C5C5C5",
";	c #C8C8C8",
">	c #BFBFBF",
",	c #D6D6D6",
"'	c #C7C7C7",
")	c #CFCFCF",
"....................",
"....................",
"......+@#$$%@&......",
".....*=-;;;;->*.....",
"....,>;;;;;;;'>*....",
"...&$;;;;;;;;;;$&...",
"...@-;;;;;;;;;;-@...",
"...%;;;;;;;;;;;;#...",
"...$;;;;;;;;;;;;$...",
"...$;;;;;;;;;;;;$...",
"...%;;;;;;;;;;;;#...",
"...@-;;;;;;;;;;-@...",
"...&=;;;;;;;;;'$&...",
"....,>;;;;;;;'>*....",
".....*=-;;;;->*.....",
"......+@#$$%)&......",
"....................",
"...................."};
