/* XPM */
static char * unfocused_xpm[] = {
"20 18 12 1",
" 	c None",
".	c #FBFBFB",
"+	c #D2D2D2",
"@	c #C3C3C3",
"#	c #BEBEBE",
"$	c #C2C2C2",
"%	c #BDBDBD",
"&	c #C5C5C5",
"*	c #C8C8C8",
"=	c #BFBFBF",
"-	c #C7C7C7",
";	c #DADADA",
"....................",
"....................",
".......+@##$+.......",
"......%&****&=......",
".....=*******-=.....",
"....#**********#....",
"...+&**********&+...",
"...$************@...",
"...#************#...",
"...#************#...",
"...$************@...",
"...+&**********&+...",
"....%*********-#....",
".....=*******-=.....",
"......%&****&=......",
".......+@##$;.......",
"....................",
"...................."};
