/* XPM */
static char * unfocused_xpm[] = {
"24 24 9 1",
" 	c None",
".	c #BFBFBF",
"+	c #C0C0C0",
"@	c #C1C1C1",
"#	c #BEBEBE",
"$	c #C7C7C7",
"%	c #C8C8C8",
"&	c #C3C3C3",
"*	c #C2C2C2",
"                        ",
"                        ",
"                        ",
"                        ",
"                        ",
"          .+@#          ",
"        +$%%%%$@        ",
"       &%%%%%%%%&       ",
"      +%%%%%%%%%%@      ",
"      $%%%%%%%%%%$      ",
"     .%%%%%%%%%%%%.     ",
"     +%%%%%%%%%%%%+     ",
"     +%%%%%%%%%%%%@     ",
"     #%%%%%%%%%%%%.     ",
"      $%%%%%%%%%%$      ",
"      @%%%%%%%%%%@      ",
"       &%%%%%%%%*       ",
"        @$%%%%$@        ",
"          .@@.          ",
"                        ",
"                        ",
"                        ",
"                        ",
"                        "};
