<?xml version="1.0" encoding="UTF-8" standalone="no"?>
<svg
   xmlns:dc="http://purl.org/dc/elements/1.1/"
   xmlns:cc="http://creativecommons.org/ns#"
   xmlns:rdf="http://www.w3.org/1999/02/22-rdf-syntax-ns#"
   xmlns:svg="http://www.w3.org/2000/svg"
   xmlns="http://www.w3.org/2000/svg"
   xmlns:xlink="http://www.w3.org/1999/xlink"
   xmlns:sodipodi="http://sodipodi.sourceforge.net/DTD/sodipodi-0.dtd"
   xmlns:inkscape="http://www.inkscape.org/namespaces/inkscape"
   width="16"
   viewBox="0 0 16 16"
   height="16"
   id="svg2"
   version="1.1"
   inkscape:version="0.92.3 (2405546, 2018-03-11)"
   sodipodi:docname="radio-mixed-insensitive-unfocused.svg">
  <metadata
     id="metadata20">
    <rdf:RDF>
      <cc:Work
         rdf:about="">
        <dc:format>image/svg+xml</dc:format>
        <dc:type
           rdf:resource="http://purl.org/dc/dcmitype/StillImage" />
      </cc:Work>
    </rdf:RDF>
  </metadata>
  <sodipodi:namedview
     pagecolor="#ffffff"
     bordercolor="#666666"
     borderopacity="1"
     objecttolerance="10"
     gridtolerance="10"
     guidetolerance="10"
     inkscape:pageopacity="0"
     inkscape:pageshadow="2"
     inkscape:window-width="1842"
     inkscape:window-height="1015"
     id="namedview18"
     showgrid="false"
     inkscape:zoom="16.875"
     inkscape:cx="4.2139252"
     inkscape:cy="11.816138"
     inkscape:window-x="78"
     inkscape:window-y="27"
     inkscape:window-maximized="1"
     inkscape:current-layer="svg2" />
  <defs
     id="defs4">
    <linearGradient
       id="linearGradient3793">
      <stop
         offset="0"
         style="stop-color:#e5e5e5"
         id="stop7" />
      <stop
         offset="1"
         style="stop-color:#f9f9f9"
         id="stop9" />
    </linearGradient>
    <linearGradient
       gradientTransform="matrix(0 1 -1 0 16 0)"
       id="linearGradient3819"
       xlink:href="#linearGradient3793"
       x1="1"
       x2="15"
       gradientUnits="userSpaceOnUse" />
  </defs>
  <path
     style="fill:#ffffff"
     d="M 7.9999998,15 C 4.1340073,15 1.0000003,11.865993 1.0000003,7.9999999 c 0,-3.8659932 3.1340069,-7 6.9999995,-7 3.8659932,0 7.0000002,3.1340068 7.0000002,7 C 15,11.865993 11.865993,15 7.9999997,15 z"
     id="path12" />
  <path
     style="fill:#393939;fill-opacity:1;opacity:0.13"
     d="M 8,0 C 3.581722,0 0,3.581722 0,8 c 0,4.418278 3.581722,8 8,8 4.418278,0 8,-3.581722 8,-8 C 16,3.581722 12.418278,0 8,0 z m 0,1 c 3.865993,0 7,3.1340068 7,7 0,3.865993 -3.134007,7 -7,7 C 4.1340068,15 1,11.865993 1,8 1,4.1340068 4.1340068,1 8,1 z"
     id="path14" />
  <rect
     ry="1.05"
     rx="1.2105261"
     y="7.7000003"
     x="3"
     height="2.0999999"
     width="10"
     id="rect4157"
     style="opacity:0.2;fill:#000000;fill-opacity:1;stroke:none" />
  <rect
     style="opacity:0.649;fill:#393939;fill-opacity:1;stroke:none"
     id="rect4153"
     width="10"
     height="2.0999999"
     x="2.9161947"
     y="6.9500003"
     rx="1.2105261"
     ry="1.05" />
  <path
     inkscape:connector-curvature="0"
     style="opacity:0.12999998;fill:#393939;fill-opacity:1"
     d="M 8,0 C 3.5817221,0 0,3.5817221 0,8 0,8.1687226 0.015097,8.3338701 0.025391,8.5 0.2846478,4.315747 3.750445,1 8.0000003,1 12.249555,1 15.715353,4.315747 15.974609,8.5 15.984899,8.3338701 15.999999,8.1687226 15.999999,8 15.999999,3.5817221 12.418277,0 8,0 Z"
     id="path4155" />
</svg>
